<?xml version="1.0" encoding="UTF-8" standalone="no"?>
<svg
   xmlns:dc="http://purl.org/dc/elements/1.1/"
   xmlns:cc="http://creativecommons.org/ns#"
   xmlns:rdf="http://www.w3.org/1999/02/22-rdf-syntax-ns#"
   xmlns:svg="http://www.w3.org/2000/svg"
   xmlns="http://www.w3.org/2000/svg"
   xmlns:sodipodi="http://sodipodi.sourceforge.net/DTD/sodipodi-0.dtd"
   xmlns:inkscape="http://www.inkscape.org/namespaces/inkscape"
   width="199.36505mm"
   height="108.25545mm"
   viewBox="0 0 199.36505 108.25545"
   version="1.1"
   id="svg8"
   inkscape:version="1.0.2 (1.0.2+r75+1)"
   sodipodi:docname="firma.svg">
  <defs
     id="defs2" />
  <sodipodi:namedview
     id="base"
     pagecolor="#ffffff"
     bordercolor="#666666"
     borderopacity="1.0"
     inkscape:pageopacity="0.0"
     inkscape:pageshadow="2"
     inkscape:zoom="0.23477906"
     inkscape:cx="129.99668"
     inkscape:cy="235.04466"
     inkscape:document-units="mm"
     inkscape:current-layer="layer1"
     inkscape:document-rotation="0"
     showgrid="false"
     inkscape:window-width="1024"
     inkscape:window-height="576"
     inkscape:window-x="0"
     inkscape:window-y="0"
     inkscape:window-maximized="1" />
  <metadata
     id="metadata5">
    <rdf:RDF>
      <cc:Work
         rdf:about="">
        <dc:format>image/svg+xml</dc:format>
        <dc:type
           rdf:resource="http://purl.org/dc/dcmitype/StillImage" />
        <dc:title />
      </cc:Work>
    </rdf:RDF>
  </metadata>
  <g
     inkscape:label="Capa 1"
     inkscape:groupmode="layer"
     id="layer1"
     style="display:inline"
     transform="translate(-5.0628814,-72.143284)">
    <g
       id="g989"
       transform="matrix(1.1937269,0,0,1.1937269,-106.30486,18.44706)">
      <path
         style="fill:#000000;stroke-width:0.352778"
         d="m 165.67596,135.42006 c -0.11876,-0.19216 -0.29483,-2.13726 -0.39126,-4.32244 l -0.17533,-3.97305 1.46227,-0.24705 c 0.80425,-0.13588 3.24655,-0.2957 5.42734,-0.35516 2.18079,-0.0595 5.50878,-0.22765 7.39554,-0.37376 2.79499,-0.21644 3.46404,-0.17421 3.61172,0.22793 0.32695,0.8903 0.462,8.78386 0.15028,8.78386 -0.16733,0 -2.1319,0.0558 -4.36572,0.12404 l -4.06147,0.12404 v -1.53515 c 0,-2.02618 -0.63657,-1.98297 -0.77442,0.0526 l -0.10752,1.58771 -3.97775,0.12792 c -2.38957,0.0769 -4.06396,-0.0116 -4.19368,-0.22146 z m 1.26026,-2.11175 c -0.62716,-3.24189 -0.22177,-5.98639 0.7354,-4.97871 0.35509,0.37383 0.67655,2.57455 0.69439,4.75386 l 0.0133,1.62724 2.38124,-0.0861 2.38125,-0.0861 -0.12295,-3.30504 c -0.0676,-1.81777 -0.2076,-3.44278 -0.31105,-3.61113 -0.1842,-0.29972 -5.35704,0.005 -6.31319,0.37195 -0.9067,0.34793 -0.53288,6.8133 0.39393,6.8133 0.32525,0 0.36318,-0.38517 0.14765,-1.4993 z m 3.07192,0.17639 c -0.30158,-1.01949 -0.35915,-4.51282 -0.0818,-4.96164 0.14216,-0.23002 0.54503,-0.41822 0.89526,-0.41822 0.6738,0 1.08547,1.75796 1.08547,4.63535 0,1.20742 -0.0973,1.36187 -0.85817,1.36187 -0.51255,0 -0.93172,-0.24864 -1.0408,-0.61736 z m 9.92466,0.99635 2.55764,-0.0262 v -3.7531 -3.7531 l -3.0868,0.18839 c -4.52246,0.276 -4.35779,0.12636 -4.1148,3.73926 0.25789,3.83442 0.30141,3.96285 1.28131,3.78066 0.44276,-0.0823 1.95595,-0.16148 3.36265,-0.1759 z m -3.21723,-1.8783 c -0.26119,-0.9746 -0.29139,-4.14514 -0.0395,-4.14514 0.62605,0 4.40326,1.9542 4.40326,2.2781 0,0.35107 -3.42427,2.66079 -3.94475,2.66079 -0.11346,0 -0.30202,-0.35718 -0.41901,-0.79375 z m -80.302898,-6.57453 c 0,-0.21605 0.40185,-0.39283 0.89301,-0.39283 0.49116,0 0.98177,-0.23128 1.09024,-0.51396 0.13785,-0.35921 0.50629,-0.45215 1.22366,-0.30868 0.820098,0.16402 1.026418,0.0814 1.026418,-0.41118 0,-0.47796 0.10715,-0.52753 0.47694,-0.22063 0.3491,0.28973 0.77462,0.29206 1.5875,0.009 1.20852,-0.42129 1.33379,-0.65934 0.68723,-1.3059 -0.32926,-0.32926 -0.31831,-0.42333 0.0493,-0.42333 0.25995,0 0.64888,0.23969 0.8643,0.53266 0.34224,0.46544 0.89249,0.36989 4.36042,-0.75716 3.54693,-1.15272 3.96875,-1.37689 3.96875,-2.10909 0,-0.56214 0.15696,-0.75904 0.5001,-0.62736 0.27506,0.10554 1.69544,-0.14351 3.15641,-0.55346 4.06003,-1.13925 8.1986,-1.77625 11.54367,-1.77678 1.66614,-2.6e-4 4.60302,-0.24274 6.52639,-0.53884 9.64148,-1.48429 11.32164,-1.63969 16.01419,-1.48121 2.79144,0.0943 6.45124,0.48493 8.82591,0.94209 9.6385,1.85555 17.96233,0.0116 31.92639,-7.07266 3.10444,-1.57494 7.31132,-3.70543 9.34861,-4.73442 9.85188,-4.975947 14.92376,-5.182717 30.94918,-1.26176 10.21936,2.50038 15.02965,3.15442 18.61875,2.53155 4.49739,-0.7805 6.9034,-2.31941 8.43658,-5.39611 2.73645,-5.491327 -0.88322,-14.739107 -5.76903,-14.739107 -1.22503,0 -4.54983,2.00667 -5.2471,3.16687 -0.667,1.10982 -2.53361,1.7701 -7.12449,2.52014 -6.81824,1.11395 -11.85316,0.83021 -19.37023,-1.09159 -2.84491,-0.72733 -7.38281,-2.55362 -7.78008,-3.13111 -0.10448,-0.15189 -0.91066,-0.76628 -1.79151,-1.36533 -0.88084,-0.59904 -3.23116,-2.61262 -5.22293,-4.47463 -1.99176,-1.86201 -3.74176,-3.38547 -3.88889,-3.38547 -0.32218,0 -1.80011,3.76498 -2.90812,7.40834 -0.5731,1.88446 -0.80544,3.5341 -0.80741,5.73264 -0.002,2.80667 -0.0642,3.0868 -0.6794,3.0868 -1.1426,0 -0.65138,-5.15333 0.992,-10.40694 0.72833,-2.32834 1.40315,-4.51115 1.4996,-4.8507 0.1268,-0.44639 -0.028,-0.61736 -0.55892,-0.61736 -0.40386,0 -0.89632,-0.30276 -1.09436,-0.67279 -0.50863,-0.95039 0.65384,-2.325821 1.9657,-2.325821 0.86035,0 1.02185,-0.17632 1.29242,-1.41111 0.7838,-3.57687 2.8256,-11.799588 3.28497,-13.229164 0.93577,-2.912166 3.42524,-7.408333 4.10189,-7.408333 0.88653,0 0.80349,0.324235 -0.7748,3.02508 -1.24128,2.12416 -3.89049,9.426007 -3.89049,10.723127 0,0.26906 -0.15023,0.97672 -0.33385,1.57258 -0.84524,2.74292 -1.86631,7.29108 -1.67893,7.47846 0.23182,0.23182 5.62735,-2.7587 8.89195,-4.92845 6.8479,-4.55132 14.96188,-13.22266 16.05521,-17.158083 0.53539,-1.92712 0.41065,-3.958605 -0.31627,-5.150672 -1.01041,-1.656948 -2.89909,-2.402191 -6.47636,-2.55547 -3.7091,-0.158923 -6.4983,0.578972 -11.36005,3.005353 -9.26631,4.624596 -16.24002,11.263704 -17.69867,16.849482 -0.53588,2.05213 -0.43562,3.71915 0.22369,3.71915 0.19033,0 0.34606,0.3175 0.34606,0.70555 0,0.90197 -0.76804,0.90549 -1.58093,0.007 -1.26066,-1.39302 -0.46304,-5.26395 1.78131,-8.644836 1.57258,-2.368945 1.66648,-2.470361 4.93882,-5.334582 8.01618,-7.016418 13.3119,-9.589248 23.10464,-11.224979 1.74156,-0.290901 4.83716,0.357035 6.21672,1.30122 2.45445,1.679858 2.82926,4.416821 1.1988,8.75416 -1.01089,2.689165 -5.88325,8.116937 -10.74222,11.966757 -3.21673,2.54865 -10.95916,8.07982 -13.14554,9.391141 -0.59839,0.35889 -0.38289,0.67815 2.33951,3.46586 5.41136,5.54118 9.3305,7.91657 15.87095,9.61935 7.9569,2.07155 21.78488,1.17447 24.05473,-1.56053 0.66341,-0.79935 4.1999,-2.98154 5.38081,-3.32022 2.70878,-0.77687 6.04731,1.89081 7.64915,6.11212 1.16245,3.06337 1.15931,7.17657 -0.007,9.453387 -2.18967,4.27376 -6.16086,6.33847 -12.20258,6.34439 -3.80829,0.004 -7.70667,-0.67601 -17.04087,-2.97135 -16.79205,-4.129287 -20.48642,-3.666057 -35.34663,4.43199 -7.77321,4.236 -15.77948,7.51909 -21.34305,8.75203 -4.94267,1.09534 -10.47592,1.00084 -17.28611,-0.29523 -5.69256,-1.08337 -10.56237,-0.91598 -19.57917,0.67299 -1.06715,0.18805 -4.87715,0.64629 -8.46667,1.0183 -6.95141,0.72043 -12.81848,2.07259 -13.75833,3.17082 -0.29104,0.34009 -1.40229,0.82844 -2.46945,1.08522 -1.06715,0.25678 -2.89277,0.7755 -4.05694,1.15271 -1.16417,0.3772 -2.35479,0.73982 -2.64583,0.80582 -0.29104,0.066 -0.56886,0.15198 -0.61736,0.19108 -0.0485,0.0391 -0.52476,0.11197 -1.05834,0.16194 -0.53357,0.05 -1.60514,0.33254 -2.38125,0.62792 -2.008378,0.76437 -4.762498,1.13691 -4.762498,0.64419 z m 20.814998,-20.23658 c 0.002,-1.84381 2.26471,-9.984047 5.47395,-19.691157 3.71223,-11.228541 4.69837,-16.089621 4.22342,-20.819011 -0.2911,-2.898626 -1.36059,-4.557094 -2.93887,-4.557323 -2.57342,-3.53e-4 -9.25475,4.914843 -12.9127,9.499403 -3.22585,4.04301 -6.75931,9.730061 -9.73108,15.662011 -3.849288,7.68359 -5.814378,14.07772 -5.595248,18.206237 0.10009,1.88574 -0.1627,2.49359 -1.07804,2.49359 -0.91983,0 -1.07337,-0.86391 -1.31658,-7.408327 -0.22276,-5.99413 0.20137,-12.91255 1.11377,-18.16806 0.26948,-1.55222 0.75759,-4.61072 1.08469,-6.796671 0.54917,-3.66999 0.92286,-4.72502 1.47722,-4.17066 0.25954,0.25954 -0.57127,5.66397 -1.06233,6.910391 -0.98185,2.49217 -2.19215,22.57778 -1.36047,22.57778 0.21788,0 0.39615,-0.0577 0.39615,-0.12824 0,-0.73419 0.80797,-4.05156 1.1995,-4.92489 0.27628,-0.61627 1.09727,-2.53544 1.82444,-4.26482 1.6932,-4.02688 4.499528,-9.04316 8.350158,-14.925811 2.34108,-3.57649 4.0369,-5.65423 7.26986,-8.90708 3.71157,-3.734423 4.5789,-4.416374 7.24233,-5.694375 3.38132,-1.622471 4.2082,-1.628937 5.6845,-0.04445 1.33912,1.437252 1.70313,3.279665 1.48032,7.492435 -0.2401,4.53936 -1.18516,8.687091 -3.04043,13.343891 -0.77543,1.94638 -1.64085,4.46306 -1.92316,5.59263 -0.2823,1.12957 -1.14351,4.03814 -1.91378,6.46348 -1.44274,4.54274 -2.99839,11.298497 -2.67595,11.620927 0.10024,0.10025 1.02197,-0.7272 2.04828,-1.83877 1.02632,-1.11158 2.03894,-2.02104 2.25027,-2.02104 0.8725,0 0.77758,0.81063 -0.21899,1.87008 -0.58385,0.62069 -1.56717,1.72384 -2.18516,2.45144 -0.82011,0.96559 -1.3996,1.32292 -2.1454,1.32292 -0.91783,0 -1.02167,-0.11665 -1.02067,-1.14653 z m 38.40466,-6.632337 c -0.44441,-1.48334 -0.10682,-5.5286 0.81567,-9.774 0.58851,-2.7084 0.31883,-2.74137 -2.54749,-0.31147 -1.0838,0.91878 -1.1365,1.04878 -0.5878,1.45 0.97485,0.71283 0.70224,1.70639 -0.89657,3.26762 -3.2424,3.1662 -6.04786,2.84303 -3.79132,-0.43673 0.58151,-0.8452 1.05729,-1.62719 1.05729,-1.73775 0,-0.11056 -0.56284,-0.20102 -1.25075,-0.20102 -0.87487,0 -1.52494,-0.27417 -2.16305,-0.91229 l -0.91229,-0.91229 -1.80842,1.78596 c -2.41291,2.38295 -3.65917,2.64643 -5.20512,1.10048 -1.10551,-1.10551 -1.1642,-1.12147 -2.09704,-0.57044 -2.00764,1.18595 -3.24013,0.45565 -3.20761,-1.90062 0.0107,-0.77717 -0.0301,-1.41302 -0.0907,-1.41302 -0.0606,0 -1.08499,1.26008 -2.2764,2.80018 -2.26093,2.92264 -3.22194,3.56931 -4.15432,2.7955 -0.43753,-0.36311 -0.51665,-0.94434 -0.37616,-2.76318 0.18934,-2.45123 1.13927,-5.66686 1.7964,-6.08101 0.83243,-0.52463 0.93649,0.38767 0.24447,2.14334 -0.84772,2.1507 -1.37979,5.85681 -0.81121,5.65053 0.51135,-0.18552 3.86854,-4.10872 5.37886,-6.28574 1.48156,-2.13555 2.64962,-2.45156 2.36886,-0.64087 -0.0978,0.63059 -0.41753,1.7805 -0.71057,2.55537 -0.55692,1.47262 -0.29893,2.6481 0.58118,2.6481 0.71753,0 2.34664,-1.90447 2.34664,-2.74328 0,-1.39895 1.67147,-4.63807 2.61527,-5.06809 1.1633,-0.53004 1.97084,0.096 1.97084,1.52776 0,1.35897 -0.49142,2.27109 -2.15637,4.00238 -1.29801,1.34974 -1.34024,1.46318 -0.82074,2.20487 0.75425,1.07684 1.86414,0.97931 3.62946,-0.31892 1.42032,-1.04451 3.93377,-3.96796 3.93377,-4.57544 0,-0.51128 2.40607,-4.35656 3.35113,-5.35566 0.50869,-0.53777 1.07404,-0.88559 1.25633,-0.77293 0.52869,0.32676 0.39796,0.69694 -0.68364,1.93575 -1.64727,1.88669 -3.28514,5.38672 -3.15537,6.74283 0.10992,1.14869 0.16697,1.18942 1.81323,1.29451 1.59535,0.10184 1.8445,-0.008 4.05694,-1.79074 1.29647,-1.04458 2.77437,-2.17052 3.28423,-2.50208 0.62405,-0.4058 0.99621,-1.03117 1.13872,-1.91342 0.26062,-1.61353 2.56158,-8.751331 4.09773,-12.711611 0.62602,-1.61389 1.05301,-3.01954 0.94887,-3.12368 -0.32195,-0.32195 -12.79293,2.79246 -14.58301,3.64184 -1.32299,0.62776 -2.71321,0.51571 -2.84929,-0.22965 -0.0771,-0.42246 1.69394,-0.88484 8.78316,-2.29305 l 8.87977,-1.76389 0.51091,-2.11667 c 0.57369,-2.37672 1.25738,-3.377074 1.8815,-2.752947 0.28724,0.287237 0.24524,0.891827 -0.15732,2.265087 -0.30202,1.0303 -0.48886,1.93354 -0.41521,2.0072 0.0737,0.0737 3.40602,-0.44458 7.40525,-1.15165 7.57165,-1.33867 10.86099,-1.50074 11.04218,-0.54407 0.0847,0.44706 -0.59896,0.5326 -4.40642,0.55133 -4.19828,0.0206 -11.2893,1.0096 -13.63568,1.90169 -0.64685,0.24593 -0.99898,1.19425 -2.25131,6.063 -2.23314,8.681901 -2.59221,10.438191 -2.69005,13.157531 -0.0723,2.00853 -0.20458,2.51362 -0.68254,2.60566 -0.90644,0.17457 -0.77417,-3.24247 0.29659,-7.66218 0.93984,-3.87932 0.95732,-5.27796 0.0262,-2.09595 -2.50376,8.55633 -2.98602,10.94176 -3.12654,15.46502 -0.0452,1.45521 0.0545,3.24115 0.22166,3.96875 0.25179,1.096297 0.20889,1.322917 -0.25043,1.322917 -0.34214,0 -0.7181,-0.54684 -0.98236,-1.428867 z m -4.27437,-5.58593 c 1.61836,-1.47932 1.83383,-2.05114 0.90694,-2.40682 -0.57389,-0.22022 -2.48011,1.58772 -3.33158,3.15981 -0.62204,1.14851 0.84175,0.69392 2.42464,-0.75299 z m -11.22653,-6.29474 c 1.13406,-1.37582 1.41735,-2.56546 0.61091,-2.56546 -0.40436,0 -2.34912,3.03306 -2.34912,3.66371 0,0.57009 0.75756,0.0914 1.73821,-1.09825 z m 21.62009,2.66006 c -0.74165,-0.74165 -0.27102,-3.87832 1.15457,-7.69496 0.32613,-0.87313 0.70026,-2.30188 0.8314,-3.175 0.19681,-1.31033 0.38248,-1.60798 1.06344,-1.70474 0.75407,-0.10716 0.80427,-0.0228 0.58386,0.98067 -0.13263,0.60386 -0.61071,2.04094 -1.0624,3.19351 -0.45169,1.15257 -0.91627,2.61627 -1.03239,3.25265 -0.1777,0.97381 -0.0801,0.87769 0.61634,-0.60682 0.45512,-0.97014 1.37135,-2.24014 2.03609,-2.82222 1.54158,-1.3499 3.98505,-2.45133 4.76997,-2.15012 0.77154,0.29606 0.33009,0.71205 -1.3116,1.23598 -2.84623,0.90834 -4.44467,2.98214 -5.85134,7.59142 -0.66578,2.18161 -1.07918,2.61839 -1.79794,1.89963 z m 8.62688,-0.16904 c -1.01694,-1.01695 1.79608,-8.69638 4.08189,-11.14335 0.80252,-0.8591 1.15631,-1.00508 1.94776,-0.8037 0.53191,0.13535 1.39045,0.27266 1.90785,0.30513 1.34544,0.0845 1.46441,0.33551 1.06136,2.23957 -0.62998,2.97613 0.22921,4.79685 1.65479,3.50671 0.3476,-0.31457 0.83117,-0.57195 1.07459,-0.57195 0.80216,0 0.18262,0.86949 -1.12929,1.58493 -1.19464,0.65148 -1.33146,0.6606 -1.86751,0.12455 -0.31813,-0.31814 -0.6612,-1.31281 -0.76237,-2.21039 -0.10117,-0.89758 -0.29311,-1.69942 -0.42653,-1.78188 -0.13342,-0.0825 -0.77997,0.75463 -1.43677,1.86018 -3.62151,6.09584 -5.16187,7.8341 -6.10577,6.8902 z m 3.26396,-4.30875 c 2.42939,-3.57745 3.62968,-6.03342 3.05621,-6.25349 -0.99947,-0.38353 -1.98426,0.63956 -3.3686,3.49961 -1.50143,3.10194 -2.1997,5.48487 -1.47622,5.03774 0.22526,-0.13922 1.03013,-1.16696 1.78861,-2.28386 z m 57.88419,-2.32998 c 0,-0.89869 0.17034,-2.73182 0.37852,-4.07361 0.5951,-3.835491 0.31911,-4.457331 -0.86167,-1.9415 -1.41055,3.00537 -2.24927,4.06958 -3.2073,4.06958 -0.83824,0 -1.24844,-0.58903 -1.24844,-1.79274 0,-0.51794 -0.25035,-0.6767 -1.06706,-0.6767 -1.21067,0 -1.75516,-0.93737 -1.75516,-3.021581 0,-0.66646 -0.15145,-1.21176 -0.33657,-1.21176 -0.18511,0 -1.22918,1.49579 -2.32015,3.323961 -2.59341,4.34587 -4.00898,5.98343 -4.87971,5.64491 -0.53592,-0.20836 -0.62588,-0.52252 -0.48727,-1.70178 0.24891,-2.11783 2.26567,-7.064331 3.57928,-8.778921 1.02911,-1.34323 1.27309,-1.47921 2.52717,-1.40835 0.76344,0.0431 1.75076,0.0841 2.19403,0.0911 1.05975,0.0167 1.26801,0.6697 0.78533,2.46225 -0.39635,1.47192 0.0232,3.894571 0.67446,3.894571 0.7077,0 1.43266,-1.45972 1.76824,-3.560391 0.7573,-4.74051 1.66306,-5.69441 4.02246,-4.23623 0.65949,0.40759 1.28137,0.74107 1.38195,0.74107 0.10059,0 0.28894,-0.75407 0.41856,-1.6757 0.60749,-4.31953 3.91566,-14.774808 5.02635,-15.885497 1.14793,-1.147932 1.65156,-0.684124 1.40396,1.292924 -0.35673,2.84838 -2.6698,10.313793 -4.43936,14.327993 -1.63523,3.7095 -1.72723,4.09049 -2.087,8.643051 -0.207,2.61938 -0.34476,5.23439 -0.30613,5.81115 0.0504,0.75182 -0.10452,1.08367 -0.54713,1.17239 -0.51691,0.10362 -0.61736,-0.1421 -0.61736,-1.51023 z m -12.91685,-3.39414 c 0.73968,-0.99077 1.96802,-2.95669 2.72966,-4.368711 1.18182,-2.19102 1.30132,-2.59935 0.81527,-2.78587 -0.31324,-0.12019 -0.7119,-0.13055 -0.88591,-0.023 -0.64948,0.4014 -2.39502,3.24455 -3.24336,5.282821 -1.77224,4.25804 -1.59911,4.81942 0.58434,1.89477 z m 10.83347,-1.38869 c 1.38918,-2.613151 2.78894,-5.671211 2.78894,-6.093021 0,-0.24341 -0.492,-0.73318 -1.09332,-1.08839 -0.95404,-0.56357 -1.15835,-0.58081 -1.60379,-0.13538 -0.76302,0.76303 -1.5273,4.03932 -1.53204,6.567521 -0.005,2.50897 0.39436,2.71658 1.44021,0.74927 z m 6.25675,-13.919641 c -0.008,-0.56719 -0.0658,-0.5326 -0.29281,0.17639 -0.3863,1.20621 -0.3863,2.13368 0,1.23472 0.16675,-0.38805 0.29852,-1.02305 0.29281,-1.41111 z m -0.10166,14.165521 c -0.55287,-0.40426 -0.62079,-0.81018 -0.4575,-2.734021 0.29439,-3.46837 1.70347,-7.13688 2.45327,-6.38708 0.18059,0.18059 -0.0655,1.61403 -0.58477,3.40581 -1.01194,3.492011 -1.07384,4.107801 -0.47326,4.708381 0.64917,0.64917 1.25863,0.51648 2.86449,-0.62367 3.36076,-2.386091 3.76985,-2.889461 4.32455,-5.321291 0.57489,-2.52034 1.63685,-4.56782 2.36918,-4.56782 0.25681,0 0.75201,0.20846 1.10045,0.46324 0.60708,0.44391 0.60168,0.58013 -0.12932,3.2632 -1.23281,4.52497 -2.52222,7.853631 -3.13301,8.088011 -0.80796,0.31005 -1.47518,-0.76264 -1.23168,-1.98014 0.11164,-0.55818 0.1042,-1.014861 -0.0165,-1.014861 -0.12072,0 -1.1899,0.714371 -2.37596,1.587501 -2.24887,1.65552 -3.54791,1.96243 -4.70992,1.11274 z m 9.67654,-4.257181 c 0.65664,-1.98965 1.01652,-4.83456 0.59373,-4.69363 -0.39108,0.13036 -1.00136,2.19102 -1.41479,4.77722 -0.28421,1.77785 0.2238,1.72613 0.82106,-0.0836 z m -7.39825,-6.86654 c 0,-0.71097 0.9381,-1.69213 1.28562,-1.34461 0.11562,0.11563 0.10876,0.6145 -0.0152,1.1086 -0.26008,1.03621 -1.27038,1.22391 -1.27038,0.23601 z"
         id="path24" />
      <g
         id="g975"
         style="display:inline"
         transform="matrix(0.14697091,0,0,0.14697091,116.23122,97.804944)">
        <path
           id="rect137"
           style="fill:#edeef2;fill-opacity:1;stroke:none;stroke-width:1.5;stroke-opacity:1"
           d="m -105.48306,173.13341 8.299251,-1.93319 0.446994,-3.99921 5.182064,-3.51489 8.818683,-1.5323 57.944264,-20.00691 13.832404,20.02077 -129.68834,39.37391 -2.54239,-11.75939 5.18813,-3.14877 3.88536,-2.34569 z"
           sodipodi:nodetypes="cccccccccccc" />
        <g
           id="g104"
           transform="translate(-29.594307,38.278372)">
          <path
             style="fill:#ccb69e;stroke-width:0.352778"
             d="m -111.05343,163.26322 c -0.10974,-0.17755 -1.31901,-0.7506 -2.68727,-1.27344 -2.02618,-0.77425 -2.66087,-1.21221 -3.42074,-2.36044 -1.09031,-1.64757 -1.21965,-4.41908 -0.29012,-6.21659 0.6576,-1.27168 4.24628,-4.2906 5.10034,-4.2906 0.32799,0 1.39696,-0.20768 2.3755,-0.46151 2.15719,-0.55957 2.47117,-0.47349 3.1647,0.86764 0.69814,1.35006 2.1624,1.28887 2.9515,-0.12334 0.49555,-0.88688 0.47472,-1.02928 -0.30491,-2.08378 -0.80322,-1.08641 -0.8108,-1.15087 -0.18877,-1.60571 0.35643,-0.26062 0.84617,-0.47386 1.08833,-0.47386 0.24216,0 1.1766,-0.63727 2.07654,-1.41617 2.499957,-2.1637 3.447674,-2.51419 7.891139,-2.91833 4.011245,-0.36484 4.084172,-0.38742 5.516746,-1.70792 2.716399,-2.50389 6.501839,-3.80029 8.658334,-2.96522 0.329727,0.12769 1.096317,-0.21808 1.900593,-0.85723 1.029103,-0.81784 1.706595,-1.07124 2.863995,-1.07124 2.855306,0 5.767825,-1.71058 6.64494,-3.90271 0.75505,-1.88705 2.826716,-4.08907 4.306467,-4.57743 0.909377,-0.30012 1.805397,-0.30524 3.445207,-0.0197 3.717152,0.64732 4.436265,0.5404 5.708709,-0.84879 1.067654,-1.1656 1.257819,-1.23472 3.397205,-1.23472 2.652229,0 3.753802,0.5593 3.181677,1.61543 -0.849393,1.56796 -2.408473,2.61418 -4.501384,3.02066 -1.155015,0.22432 -2.298467,0.56241 -2.541002,0.75131 -1.025256,0.79849 0.04993,3.51839 1.859548,4.7041 0.817559,0.53568 1.188057,0.55601 3.240709,0.17779 1.274688,-0.23486 2.927145,-0.73799 3.672127,-1.11805 0.744982,-0.38006 2.507446,-0.93355 3.916592,-1.22997 1.409142,-0.29643 3.436683,-0.94031 4.505649,-1.43086 1.068963,-0.49054 3.292944,-1.26743 4.94218,-1.72641 10.082149,-2.80583 17.056904,-5.04238 23.5368282,-7.5474 2.564772,-0.99148 5.0061529,-1.8027 5.4252952,-1.8027 0.9890936,0 6.135846,-1.63391 7.7267644,-2.45297 0.6790972,-0.34962 1.4647615,-1.0361 1.7459183,-1.52552 0.4719108,-0.82146 0.4362238,-1.00314 -0.4643543,-2.36401 -1.5333345,-2.31702 -4.50877149,-3.18387 -6.26107157,-1.82407 -1.16977223,0.90775 -1.74139223,1.04713 -2.92414313,0.71298 -0.8522652,-0.24079 -1.6129211,0.005 -4.5249605,1.46295 -2.2924666,1.14765 -4.2947696,1.87929 -5.8021216,2.12009 -3.961162,0.6328 -4.940064,-0.37948 -1.789405,-1.85042 3.655804,-1.70678 12.0538796,-4.86237 12.940389,-4.86237 1.2110437,0 2.48637766,-0.78691 3.23286952,-1.99476 0.82958868,-1.34231 4.16283758,-3.07307 6.62870128,-3.4419 1.3890907,-0.20777 1.7977026,-0.0825 4.0008812,1.22636 1.903585,1.1309 2.703664,1.41914 3.568181,1.28547 1.676555,-0.25923 6.547975,-1.54216 8.346337,-2.19809 0.873125,-0.31845 3.254375,-0.94727 5.291667,-1.39736 2.037291,-0.45009 5.291666,-1.26287 7.231944,-1.80617 1.940278,-0.543297 4.091866,-0.988897 4.781306,-0.99022 1.852123,-0.0036 3.252329,1.2076 4.961636,4.29175 1.29757,2.34124 1.511791,3.01848 1.498156,4.73627 -0.02709,3.41501 -1.217867,4.45695 -5.975823,5.22902 -2.636682,0.42785 -5.62877,1.59728 -10.420999,4.07298 -1.738749,0.89824 -3.522235,1.56999 -4.16833,1.56999 -1.747223,0 -2.355977,0.51611 -3.759828,3.18764 -0.715662,1.36191 -1.744761,2.84942 -2.286882,3.30559 -1.528519,1.28616 -5.945455,2.97179 -10.3020699,3.93156 -5.2864665,1.16462 -7.4864557,1.82024 -9.45452877,2.81754 -0.90398597,0.45808 -2.57764133,1.07059 -3.71923363,1.36112 -3.912369,0.9957 -16.2719097,4.97725 -28.2997407,9.11659 -8.275189,2.84787 -12.024917,3.96582 -16.436653,4.9004 -2.082546,0.44117 -3.730177,1.03974 -4.863095,1.76673 -2.389995,1.53366 -4.33155,1.70206 -6.318564,0.54804 -2.153087,-1.25048 -3.773734,-1.48507 -5.442493,-0.78782 -0.751868,0.31415 -1.625959,0.80551 -1.942426,1.0919 -0.316466,0.2864 -1.512901,0.76487 -2.658745,1.06327 -1.145843,0.2984 -3.523389,1.08186 -5.283436,1.74101 -1.760047,0.65916 -4.189289,1.35777 -5.398318,1.55248 -1.209029,0.19471 -2.705866,0.61533 -3.326303,0.9347 -0.620441,0.31937 -2.777684,1.19998 -4.793876,1.9569 -3.052741,1.14608 -4.114708,1.37882 -6.35,1.39172 -1.48785,0.009 -3.313126,0.25175 -4.095305,0.54559 -0.776111,0.29156 -2.04611,0.74235 -2.82222,1.00177 -0.77611,0.25941 -2.19801,0.82959 -3.15976,1.26707 -1.44706,0.65824 -4.95666,1.69482 -5.90345,1.74363 -0.13407,0.007 -0.33354,-0.1327 -0.44327,-0.31025 z m 24.990889,-19.18882 c 0.310712,-0.50755 0.257327,-0.73705 -0.261063,-1.1223 -0.852519,-0.63354 -1.641404,-0.30628 -1.641404,0.68094 0,1.41301 1.145018,1.67865 1.902467,0.44136 z m 13.423363,-3.85019 c 1.243923,-1.77595 0.120862,-3.10582 -1.409058,-1.66853 -1.1672,1.09653 -1.168336,2.45258 -0.0021,2.45258 0.490788,0 1.098412,-0.33761 1.411111,-0.78405 z m 6.623008,-2.16789 c 0.815968,-0.50958 0.793372,-0.9772 -0.102221,-2.11576 -1.093385,-1.39001 -2.248486,-1.22497 -3.321361,0.47458 -1.078618,1.70864 -1.07891,1.71528 -0.09262,2.11663 0.87739,0.35702 2.544054,0.13166 3.5162,-0.47545 z"
             id="path120" />
          <path
             style="fill:#aea191;stroke-width:0.352778"
             d="m -112.25273,160.91545 c -4.68765,-1.26113 -6.34431,-5.18334 -3.46665,-8.20743 2.05741,-2.1621 2.50813,-2.25691 6.71842,-1.41321 3.16866,0.63497 3.88548,0.67897 4.81157,0.29537 1.1942,-0.49465 1.92557,-1.6379 2.28978,-3.57933 0.2767,-1.47494 2.875083,-4.61872 4.533279,-5.48481 0.705143,-0.3683 1.92877,-0.57427 3.349343,-0.56379 2.70897,0.02 3.953506,0.78207 4.406713,2.69842 0.229379,0.96991 0.53159,1.34769 1.215414,1.51931 1.832744,0.45999 4.291182,-1.9829 3.337708,-3.31659 -1.15371,-1.6138 -1.30387,-2.2438 -0.764035,-3.20559 0.658579,-1.17334 2.992748,-2.51709 4.382569,-2.52297 1.498427,-0.006 3.30666,1.21077 3.896659,2.62284 1.057737,2.53152 3.679483,3.0797 5.981118,1.25059 0.732458,-0.58208 1.428972,-1.05953 1.547813,-1.061 0.595037,-0.007 4.961011,-0.77722 6.067622,-1.06994 1.365359,-0.36118 2.264487,-1.68969 1.90664,-2.81717 -0.11062,-0.34853 -0.735481,-1.04126 -1.388579,-1.53941 -0.653097,-0.49814 -1.532699,-1.46433 -1.954671,-2.1471 -0.977836,-1.58217 -0.738057,-2.80701 0.899488,-4.5948 l 1.223574,-1.33583 2.416359,0.20258 c 1.328998,0.11142 2.993263,0.44362 3.698363,0.73824 1.135966,0.47463 1.282002,0.67964 1.282002,1.7997 0,2.80429 2.15569,5.47473 4.419423,5.47473 1.700971,0 4.722054,-0.68945 6.16391,-1.40669 0.679097,-0.3378 2.107847,-0.81203 3.174999,-1.05384 1.067153,-0.24181 3.289653,-0.96387 4.938889,-1.60458 1.649236,-0.64071 5.379861,-1.82908 8.290278,-2.64084 6.054936,-1.6888 17.393118,-5.39852 21.4404318,-7.01505 1.508767,-0.60262 3.1328112,-1.09567 3.6089871,-1.09567 0.4761759,0 1.8611073,-0.38914 3.0776226,-0.86475 1.21651532,-0.47561 2.8025689,-0.95819 3.5245639,-1.0724 1.6003304,-0.25316 3.8025597,-2.20208 3.8025597,-3.36518 0,-1.51229 -1.608723,-3.6733 -3.5013687,-4.70341 -1.3197945,-0.71832 -1.7902977,-1.17977 -1.7902977,-1.75584 0,-1.21737 0.9948544,-2.34739 2.7162159,-3.08525 2.4984674,-1.07097 4.4610371,-0.90461 7.3776524,0.62538 l 2.509146,1.31624 1.900576,-0.59463 c 2.935696,-0.91849 7.890541,-2.29899 11.778353,-3.28166 1.940278,-0.49041 5.353403,-1.38319 7.584722,-1.98397 2.23132,-0.60077 4.533194,-1.155405 5.115278,-1.232522 1.710697,-0.226635 3.086258,0.922862 4.712733,3.938242 1.602652,2.97121 1.888473,5.03736 0.948348,6.85536 -0.610143,1.17989 -1.649599,1.6372 -4.955526,2.1802 -2.516501,0.41334 -7.964907,2.34001 -9.877777,3.49299 -0.582083,0.35085 -2.328333,0.99057 -3.880556,1.42159 -1.552222,0.43103 -3.139722,0.99937 -3.527777,1.26299 -0.388056,0.26363 -1.420792,1.7129 -2.294968,3.22061 -1.181774,2.03823 -2.026906,3.034 -3.29524,3.88259 -1.9772,1.32287 -6.713651,2.91564 -8.670269,2.91564 -1.8766824,0 -7.9715745,1.59429 -9.46622333,2.47616 -0.68141494,0.40204 -2.27593167,0.97148 -3.54337047,1.26542 -1.2674387,0.29394 -2.7207138,0.7497 -3.2295005,1.0128 -0.5087831,0.2631 -3.2207697,1.13657 -6.0266327,1.94103 -2.805864,0.80446 -6.292198,1.91362 -7.747406,2.4648 -1.455208,0.55118 -3.757083,1.32177 -5.115277,1.71242 -1.358195,0.39065 -3.898195,1.19231 -5.644445,1.78145 -9.419932,3.17807 -14.776417,4.74946 -17.510657,5.13699 -0.958804,0.13589 -2.60846,0.81855 -3.986494,1.64968 -2.730169,1.64664 -4.514166,1.86509 -6.086743,0.74531 -2.450885,-1.74518 -5.603984,-1.71635 -8.188727,0.0749 -0.732621,0.50771 -2.349736,1.21908 -3.593596,1.58083 -1.243859,0.36175 -3.293434,1.15146 -4.554614,1.75492 -1.982622,0.94866 -2.680007,1.09724 -5.151304,1.09748 -2.48376,2.4e-4 -3.015297,0.11478 -4.056944,0.87419 -1.297587,0.94601 -2.217762,1.42619 -5.348273,2.79096 -1.817116,0.79219 -2.344399,0.86429 -4.967369,0.67918 -3.183886,-0.22469 -3.928984,-0.056 -9.837262,2.22715 -3.35083,1.29487 -4.74527,1.41115 -7.62657,0.63599 z m 59.629157,-34.81205 c 0.07245,-0.5101 0.396378,-0.83404 0.90648,-0.90648 0.872349,-0.12389 1.074466,0.57285 0.370417,1.27689 -0.704049,0.70405 -1.400789,0.50194 -1.276897,-0.37041 z"
             id="path118" />
          <path
             style="fill:#9d8a73;stroke-width:0.352778"
             d="m -112.38992,160.42534 c -1.41956,-0.44625 -3.40253,-1.7461 -3.80177,-2.49209 -0.19157,-0.35795 -0.34832,-1.32085 -0.34832,-2.13975 0,-1.28845 0.19821,-1.67748 1.4721,-2.8893 l 1.47209,-1.40037 2.14388,0.29771 c 1.17913,0.16374 3.51659,0.30255 5.19435,0.30846 3.53332,0.0125 4.15711,-0.33687 4.87294,-2.72895 0.62973,-2.10433 3.034679,-5.39691 4.423283,-6.05584 2.417124,-1.147 5.145469,-0.35422 6.024958,1.7507 0.575105,1.37642 1.415506,1.92957 2.931611,1.92957 1.574271,0 2.786987,-0.67727 3.616755,-2.01986 0.669297,-1.08295 0.696472,-1.33941 0.294164,-2.7763 -0.545648,-1.94887 -0.142748,-3.03849 1.422873,-3.8481 1.477401,-0.764 2.204314,-0.44885 3.669799,1.591 2.238936,3.11643 4.611539,3.69004 7.526379,1.81959 1.347753,-0.86485 2.538039,-1.2612 4.967686,-1.65416 3.803361,-0.61515 4.792306,-1.01776 5.314343,-2.1635 0.644624,-1.4148 0.484354,-1.80296 -1.724988,-4.17784 -2.490748,-2.67736 -2.698965,-3.71175 -1.093184,-5.43074 1.130914,-1.21065 2.505749,-1.41523 4.656515,-0.69291 1.754695,0.5893 2.276948,1.17152 3.153632,3.51576 0.811735,2.17055 2.467352,3.94486 4.052125,4.34261 1.208423,0.3033 7.796202,-1.57403 16.042023,-4.57152 1.843263,-0.67006 5.891388,-1.86752 8.995833,-2.66102 3.104444,-0.7935 6.739858,-1.90824 8.078695,-2.4772 1.338841,-0.56897 3.725764,-1.4089 5.304275,-1.86653 1.578511,-0.45762 4.4052275,-1.40705 6.2815924,-2.10983 1.8763615,-0.70278 3.8550637,-1.27837 4.3971138,-1.2791 0.5420501,-7.1e-4 1.5116669,-0.32209 2.15470311,-0.71413 0.64303626,-0.39205 1.99241119,-0.88701 2.99861099,-1.09992 1.0061998,-0.21291 2.2534985,-0.60353 2.7717785,-0.86804 1.2450621,-0.63545 2.4090629,-2.31232 2.4090629,-3.47052 0,-1.20677 -1.0900198,-3.31306 -2.2922441,-4.42941 -2.2027091,-2.04535 -2.1948069,-3.51574 0.023883,-4.44277 1.9414666,-0.8112 3.5305893,-0.6139 5.9491064,0.73861 1.214339,0.6791 2.496178,1.23472 2.848536,1.23472 0.675725,0 2.345948,-0.45318 8.110992,-2.20076 5.684869,-1.72327 16.798886,-4.55335 18.520833,-4.71616 2.000278,-0.18913 2.414178,0.13645 4.216188,3.31648 1.150557,2.0304 1.428256,2.86865 1.428256,4.31121 0,2.56094 -0.817206,3.27326 -4.421085,3.85365 -3.032784,0.48842 -8.367857,2.28577 -10.450459,3.5207 -0.709277,0.42059 -2.296777,1.01696 -3.527778,1.32529 -4.248545,1.06411 -5.405532,1.95469 -7.156082,5.5083 -0.822583,1.66984 -1.488486,2.46446 -2.799482,3.34061 -2.335739,1.561 -5.176058,2.37227 -7.9682907,2.27596 -1.6437997,-0.0567 -3.0713432,0.17323 -5.1152776,0.82388 -3.78561936,1.2051 -4.30459779,1.38395 -6.3629326,2.19286 -3.2236479,1.26687 -7.3574096,2.59027 -11.9489181,3.82538 -2.497324,0.67177 -5.434199,1.5512 -6.526389,1.95429 -1.092193,0.40309 -2.620803,0.88947 -3.396914,1.08083 -0.776111,0.19136 -3.157361,1.02955 -5.291667,1.86264 -2.134305,0.83308 -5.465618,1.935 -7.402911,2.44871 -1.937296,0.5137 -3.878964,1.16767 -4.314818,1.45325 -1.089984,0.71419 -6.26988,1.9174 -8.267456,1.92041 -1.397617,0.002 -1.95762,0.24068 -3.779255,1.61002 -2.835081,2.13117 -3.896018,2.27624 -6.522078,0.89182 -2.933573,-1.54653 -4.704429,-1.48625 -8.048071,0.27397 -1.423197,0.74922 -3.222632,1.5649 -3.998743,1.81261 -0.776111,0.24772 -2.522361,1.01577 -3.880555,1.70678 -2.282469,1.16126 -2.713489,1.25774 -5.692641,1.27419 -3.022815,0.0167 -3.318891,0.0857 -4.7625,1.10966 -0.846617,0.60053 -2.610933,1.61454 -3.920701,2.25337 -2.290879,1.11735 -2.492022,1.15259 -5.291667,0.92707 -2.860308,-0.2304 -2.985971,-0.2059 -7.319988,1.42711 -4.57998,1.7257 -8.07664,2.25011 -10.3138,1.54684 z"
             id="path116" />
          <path
             style="fill:#897661;stroke-width:0.352778"
             d="m -110.19001,159.86444 c -0.29104,-0.0616 -1.12787,-0.20975 -1.85962,-0.32926 -1.83151,-0.29911 -3.78482,-2.05978 -3.78482,-3.41154 0,-1.52308 0.87341,-2.95874 2.11217,-3.47185 0.88149,-0.36513 1.58459,-0.3652 3.71734,-3.6e-4 2.85918,0.48908 6.13469,0.33107 7.65509,-0.36929 0.64621,-0.29766 1.15905,-0.97439 1.5656,-2.0659 0.974263,-2.61573 3.210105,-5.68103 4.553052,-6.24215 1.856038,-0.7755 2.281156,-0.62843 4.204166,1.45439 2.028539,2.19712 3.268934,2.61833 5.746206,1.95127 2.106821,-0.56731 3.254707,-2.32635 3.254707,-4.98757 0,-3.03592 1.580557,-4.02778 2.990169,-1.87644 0.911796,1.39158 3.30038,2.90984 4.972307,3.16056 1.343332,0.20145 1.782184,0.0896 3.234073,-0.82435 1.933589,-1.21715 3.360617,-1.6888 6.089561,-2.01265 2.390172,-0.28365 4.751243,-1.29067 5.261497,-2.24409 0.826438,-1.54421 0.464993,-2.83325 -1.332399,-4.75179 -2.268326,-2.42122 -2.629362,-3.14083 -2.127931,-4.24135 0.52662,-1.1558 1.863344,-1.71542 3.438917,-1.4397 2.01181,0.35207 2.823463,1.06718 3.995028,3.51983 1.306939,2.73606 3.272663,4.38963 5.210079,4.38273 1.516384,-0.005 6.193046,-1.389 13.071475,-3.86723 2.813403,-1.01365 7.575902,-2.43963 10.583333,-3.16886 3.00743,-0.72923 7.002141,-1.97004 8.877137,-2.75734 1.874996,-0.7873 4.653121,-1.76955 6.173611,-2.18277 1.52049,-0.41322 3.955154,-1.20083 5.4103623,-1.75026 1.4552083,-0.54942 3.267156,-1.10993 4.0265525,-1.24556 0.7593965,-0.13564 2.1087714,-0.61629 2.99861099,-1.06811 0.88983958,-0.45182 2.36078171,-0.92405 3.26875761,-1.0494 1.9867562,-0.27427 3.2398122,-1.19108 4.1998087,-3.07283 0.6803249,-1.33354 0.6879978,-1.48636 0.1551835,-3.09051 -0.308289,-0.92817 -1.0316633,-2.43049 -1.607499,-3.33849 -1.1712751,-1.84691 -1.2739722,-2.40994 -0.549282,-3.01139 1.1114793,-0.92244 2.835356,-0.83974 4.9969804,0.23972 1.14953,0.57404 2.486928,1.13834 2.971998,1.25399 0.980641,0.23381 5.069628,-0.73873 11.465277,-2.72694 5.351776,-1.6637 14.431712,-4.09353 16.051388,-4.29542 1.558848,-0.19431 2.089027,0.22953 3.67762,2.94006 1.530026,2.61059 1.821893,3.86238 1.281988,5.49831 -0.468129,1.41844 -0.660644,1.51726 -4.304168,2.20929 -3.244814,0.6163 -8.355209,2.34566 -10.331672,3.49623 -0.789947,0.45986 -2.545563,1.0914 -3.901372,1.40341 -3.723714,0.85695 -5.728924,2.36971 -7.042958,5.3133 -0.88344,1.97901 -2.236212,3.26678 -4.917923,4.68161 -1.661277,0.87647 -2.085883,0.94423 -5.4446452,0.86895 -2.9632838,-0.0664 -3.88463,0.0406 -4.9388887,0.57389 -0.7128192,0.36056 -2.1547172,0.8376 -3.204217,1.0601 -1.0494997,0.22251 -2.63699964,0.73348 -3.5277776,1.1355 -0.890778,0.40203 -2.5720956,1.01849 -3.7362623,1.36992 -1.1641666,0.35142 -2.9897915,0.95765 -4.0569443,1.34717 -1.0671529,0.38952 -4.0834029,1.21952 -6.7027779,1.84445 -5.532377,1.31991 -10.216874,2.7763 -12.224681,3.8006 -0.777264,0.39654 -3.702497,1.36956 -6.500515,2.16227 -2.798015,0.79272 -6.409087,2.00884 -8.024598,2.70249 -2.752897,1.18202 -3.090407,1.24581 -5.376276,1.01625 l -2.438982,-0.24493 -1.898354,1.97572 c -1.670043,1.73811 -2.062924,1.975 -3.266778,1.9697 -0.876932,-0.004 -2.001954,-0.38181 -3.132314,-1.05231 -2.650247,-1.57207 -4.518131,-1.46542 -8.494889,0.48506 -1.730727,0.84887 -3.543652,1.66352 -4.028722,1.81034 -0.485069,0.14682 -2.108732,0.88104 -3.60814,1.6316 -2.547832,1.27535 -2.929922,1.36464 -5.839961,1.36464 -2.802107,0 -3.270744,0.0989 -4.682137,0.98813 -5.140642,3.2388 -5.384761,3.32595 -9.167985,3.27287 -2.85701,-0.0401 -3.750155,0.079 -4.867836,0.64923 -1.5745,0.80325 -8.33409,2.87096 -9.18606,2.80996 -0.31432,-0.0225 -0.80962,-0.0913 -1.10066,-0.1529 z"
             id="path114" />
          <path
             style="fill:#695f51;stroke-width:0.352778"
             d="m -112.90823,158.60934 c -2.14367,-0.61985 -2.87488,-2.9159 -1.48951,-4.67712 0.83485,-1.06133 1.56677,-1.13563 5.17132,-0.52503 3.25574,0.55153 7.07283,-0.0705 8.3655,-1.36312 0.49581,-0.49581 0.901468,-1.06871 0.901468,-1.27313 0,-0.97024 2.930084,-5.12355 4.033971,-5.71804 1.125869,-0.60632 1.241506,-0.60862 2.106426,-0.0419 0.503336,0.3298 0.915158,0.749 0.915158,0.93156 0,0.18256 0.592476,0.73453 1.316613,1.22659 1.06064,0.72072 1.743283,0.89466 3.511179,0.89466 1.207012,0 2.601775,-0.18553 3.099477,-0.4123 0.95309,-0.43426 2.835078,-3.18225 3.21437,-4.69348 0.123056,-0.49029 0.347864,-0.89144 0.499572,-0.89144 0.151709,0 1.400098,0.55563 2.774195,1.23472 3.239026,1.60077 4.838739,1.63003 7.174435,0.13122 1.402658,-0.90008 2.271,-1.15939 4.710514,-1.40666 4.791361,-0.48565 6.84409,-1.88298 7.129487,-4.85317 0.16231,-1.68915 0.123518,-1.77208 -1.815327,-3.88106 -2.692407,-2.92866 -2.59655,-4.27783 0.303932,-4.27783 1.906323,0 2.816317,0.70203 4.034254,3.11225 1.001483,1.98189 3.051058,3.98653 4.727574,4.62394 0.502783,0.19116 1.344207,0.19735 2.04711,0.0151 4.892731,-1.26884 8.009452,-2.20153 8.932051,-2.67297 1.161464,-0.59349 8.065226,-3.03537 10.958618,-3.8761 0.970138,-0.28189 3.113263,-0.73561 4.762499,-1.00827 1.967361,-0.32524 4.029862,-0.98102 5.997222,-1.90683 1.649237,-0.77611 4.030486,-1.72796 5.291667,-2.11523 1.26118,-0.38728 4.7536804,-1.45921 7.7611108,-2.38208 3.0074305,-0.92287 5.81555559,-1.89939 6.24027885,-2.17005 0.42472327,-0.27066 1.84032515,-0.71558 3.14578635,-0.98872 2.6050028,-0.54504 3.691142,-1.32213 4.7593778,-3.40515 0.8520218,-1.66141 0.8475133,-1.7763 -0.2134235,-5.43737 -1.2521847,-4.32103 -0.8041746,-4.73754 3.3207817,-3.0873 2.931823,1.17292 5.545525,1.02549 10.098398,-0.56959 3.96284,-1.38837 10.451821,-3.32007 15.511299,-4.61754 2.134306,-0.54734 4.232748,-1.09974 4.6632,-1.22757 0.590148,-0.17525 1.023991,0.0247 1.763889,0.81285 1.723189,1.83562 2.921522,4.13796 2.921522,5.61308 0,2.19847 -0.675841,2.81609 -3.61334,3.30207 -3.436613,0.56856 -8.858645,2.30571 -11.027777,3.53317 -0.970601,0.54923 -2.916978,1.26069 -4.325277,1.581 -3.686482,0.83847 -5.600531,2.25915 -7.073519,5.25025 -0.997306,2.02516 -1.482983,2.57685 -3.305411,3.75475 -2.679298,1.73171 -3.952018,1.97097 -7.6484023,1.43785 -2.868817,-0.41377 -2.9973904,-0.40115 -4.6349601,0.45512 -0.9263591,0.48437 -2.7735564,1.06777 -4.10488326,1.29644 -1.33132684,0.22866 -3.16460704,0.78959 -4.07395174,1.24652 -2.737559,1.37556 -6.1501896,2.55202 -9.0300456,3.11298 -6.184208,1.20463 -10.703976,2.26505 -11.117721,2.60843 -0.242111,0.20093 -1.547777,0.7863 -2.901484,1.30081 -1.353703,0.51452 -3.016906,1.153 -3.696003,1.41885 -0.679097,0.26586 -2.266597,0.49189 -3.527778,0.50231 -1.690317,0.0139 -2.802791,0.25619 -4.232292,0.92157 -1.066581,0.49646 -2.954754,1.02491 -4.195942,1.17433 -1.956527,0.23555 -2.380407,0.42325 -3.186663,1.41111 l -0.929958,1.13943 -0.977691,-0.90609 c -0.537733,-0.49835 -1.184163,-0.90609 -1.436515,-0.90609 -1.016441,0 -2.896828,1.67781 -3.654301,3.26063 -1.485809,3.10473 -3.537215,3.48929 -6.127916,1.14874 -1.06571,-0.9628 -1.666783,-1.23437 -2.732049,-1.23437 -2.180364,0 -3.129269,0.38383 -13.625282,5.51145 l -3.175,1.55109 -2.998611,-0.21172 -2.998611,-0.21172 -3.47061,2.32489 -3.470614,2.32489 h -3.764139 c -3.324348,0 -3.95509,0.10165 -5.398478,0.87003 -3.60378,1.91844 -9.15951,2.79089 -12.19077,1.91439 z"
             id="path112" />
          <path
             style="fill:#5b4a36;stroke-width:0.352778"
             d="m -112.56423,158.3991 c -1.18497,-0.22889 -2.2984,-1.82752 -2.02795,-2.91168 0.3076,-1.23311 1.18861,-2.13194 2.08968,-2.13194 0.41423,0 1.69775,0.24604 2.85226,0.54675 3.83581,0.9991 9.1753,-0.41088 10.572732,-2.7919 1.320765,-2.25039 3.416067,-4.8104 3.937187,-4.8104 0.285785,0 1.024957,0.37722 1.6426,0.83828 1.595734,1.19117 3.435633,1.69508 6.114168,1.67452 2.739535,-0.021 3.698664,-0.53001 4.700951,-2.49465 1.324564,-2.59636 1.955913,-2.74017 6.083547,-1.3857 2.809737,0.92201 3.345571,0.85155 5.703189,-0.74996 1.979012,-1.34433 3.309595,-1.69048 4.597837,-1.19614 1.007717,0.3867 0.585911,1.17026 -1.117674,2.07625 -0.921632,0.49013 -2.228843,1.20718 -2.904913,1.59344 -0.676071,0.38626 -1.477264,0.70229 -1.780431,0.70229 -0.303167,0 -1.621843,0.70319 -2.930387,1.56265 -2.921081,1.91857 -3.9035,2.15133 -6.785275,1.60757 -1.243002,-0.23454 -2.64928,-0.32873 -3.125061,-0.20932 -0.47578,0.11942 -1.865894,1.08998 -3.08914,2.15681 -3.160215,2.75613 -3.790135,2.98869 -7.905916,2.91893 -3.394544,-0.0575 -3.56338,-0.0224 -5.962904,1.23971 -3.15461,1.65932 -7.49291,2.37711 -10.6645,1.76449 z m 54.333826,-14.07155 c -1.025839,-1.08481 -1.865161,-2.20238 -1.865161,-2.4835 0,-0.28112 0.3175,-1.13347 0.705556,-1.89412 0.446931,-0.87606 0.705556,-2.0792 0.705556,-3.28227 0,-1.80123 -0.09199,-1.99521 -1.782103,-3.75797 -1.929832,-2.01277 -2.11395,-2.95018 -0.613576,-3.12387 1.455007,-0.16845 2.17472,0.40898 3.418614,2.74276 0.857712,1.60924 1.723005,2.5824 3.476322,3.90969 1.283899,0.97194 2.68769,1.85584 3.119536,1.96423 0.43773,0.10986 1.521368,-0.12859 2.448867,-0.53887 2.55434,-1.1299 3.659247,-0.89306 3.160765,0.67752 -0.29082,0.91629 -1.699652,1.248 -3.26287,0.76823 -2.05552,-0.63085 -3.084241,0.16189 -4.708821,3.62865 -1.20173,2.56443 -1.845719,3.3619 -2.714872,3.3619 -0.12246,0 -1.061977,-0.88758 -2.087813,-1.97238 z m 21.065394,-9.94199 c 0,-0.53415 1.994105,-1.13841 3.756808,-1.13841 1.497552,0 2.041747,0.43555 1.029512,0.82399 -1.122846,0.43087 -4.78632,0.67153 -4.78632,0.31442 z m 7.573606,-1.86196 c -0.746079,-1.20718 3.140375,-2.47159 5.721054,-1.86127 l 1.326148,0.31363 -1.380822,0.85339 c -1.612314,0.99646 -5.207377,1.43694 -5.66638,0.69425 z m 11.719401,-2.35695 c -1.141412,-0.11857 -1.327912,-0.25432 -1.234722,-0.89871 0.1616,-1.11745 1.811249,-2.05127 5.948027,-3.36699 2.02771,-0.64492 6.1101849,-1.96334 9.0721706,-2.92982 2.9619856,-0.96647 6.2829296,-1.9033 7.3798745,-2.08183 2.3459192,-0.38181 3.3461711,-1.20915 4.8469513,-4.00908 1.031374,-1.92418 1.0315468,-1.9256 0.553914,-4.45697 -0.7332521,-3.88608 -0.7459028,-3.87815 5.3021936,-3.32513 2.431834,0.22236 2.920037,0.1474 5.820833,-0.89369 1.741498,-0.62503 4.198235,-1.45034 5.459416,-1.83403 12.828054,-3.90272 16.669525,-4.82581 17.435924,-4.18975 1.038292,0.8617 2.672408,4.34954 2.672408,5.70395 0,1.20072 -0.695702,2.43199 -1.374143,2.43199 -0.14598,0 -1.761829,0.25634 -3.590773,0.56964 -3.286598,0.56299 -7.614638,2.04636 -9.682981,3.3187 -0.586274,0.36065 -2.332524,1.00159 -3.880555,1.42432 -1.548032,0.42273 -3.394559,1.06258 -4.103395,1.4219 -1.543964,0.78265 -3.362826,2.89363 -3.660341,4.2482 -0.31913,1.45298 -1.372415,2.6066 -3.481807,3.81347 -2.526725,1.44564 -4.633313,1.45089 -8.2056955,0.0204 -1.4536843,-0.58208 -3.0274859,-1.05833 -3.4973365,-1.05833 -0.4815804,0 -1.4533774,0.54126 -2.2275305,1.24066 -1.31201934,1.18533 -1.54410478,1.25724 -5.2044881,1.61268 -5.0031084,0.48582 -5.5683571,0.65811 -5.7082688,1.73987 -0.1872191,1.44751 -0.9799426,1.76222 -4.2758036,1.69749 -1.660659,-0.0326 -3.6244,-0.12216 -4.363872,-0.19897 z"
             id="path110" />
          <path
             style="display:inline;fill:#4b3622;stroke-width:0.352778"
             d="m -112.89341,157.54516 c -1.0194,-0.52046 -1.27801,-1.69015 -0.60185,-2.7221 0.47624,-0.72684 0.73791,-0.81144 1.92339,-0.62188 0.75468,0.12068 1.92432,0.48273 2.59918,0.80455 1.03725,0.49463 1.51542,0.5235 3.09166,0.18667 3.12463,-0.66769 4.15769,-0.77577 4.15769,-0.43494 0,0.58964 -2.42529,2.19013 -3.78358,2.49685 -2.37846,0.53708 -6.58018,0.70253 -7.38649,0.29085 z m 14.902941,-3.04153 -2.440741,-0.12477 1.02963,-0.97531 c 0.566297,-0.53642 1.294553,-1.47147 1.61835,-2.07788 0.429267,-0.80394 1.00257,-1.22209 2.116667,-1.54383 3.323583,-0.95982 6.995999,-0.29613 6.995999,1.26434 0,0.47781 -0.512649,1.19091 -1.322916,1.84022 -1.942705,1.55678 -2.71259,1.88797 -4.210142,1.8111 -0.74036,-0.038 -2.444439,-0.12524 -3.786847,-0.19387 z m 17.136526,-4.68292 c -1.824556,-0.41783 -2.04887,-0.82108 -1.419772,-2.55237 0.726246,-1.99862 1.779284,-2.58326 3.712118,-2.06091 0.806249,0.21788 1.834388,0.69453 2.284751,1.05921 0.72729,0.58892 0.76804,0.75604 0.364459,1.4947 -0.945766,1.73099 -2.871308,2.53345 -4.941556,2.05937 z m 23.056803,-7.45929 c -0.626385,-0.74442 -0.872652,-1.36141 -0.739246,-1.85209 0.110028,-0.40469 0.376146,-1.72798 0.591372,-2.94065 0.215227,-1.21268 0.445326,-2.20487 0.511331,-2.20487 0.307378,0 2.891627,1.60637 3.599924,2.23771 1.011184,0.90131 0.995782,1.72327 -0.07541,4.0241 -0.755301,1.62232 -0.991687,1.85208 -1.905473,1.85208 -0.738071,0 -1.317942,-0.32651 -1.982498,-1.11628 z M 9.9308219,125.34886 c -1.7304561,-0.75596 -3.3513888,-2.31405 -3.3513888,-3.22147 0,-0.45456 0.7099477,-2.28515 1.577661,-4.06796 1.4650543,-3.01012 1.5626962,-3.38466 1.3679981,-5.24746 -0.2673844,-2.55818 0.3735599,-3.39884 2.3192068,-3.04187 3.423116,0.62806 3.76483,0.61084 6.384106,-0.32177 2.44329,-0.86995 10.474396,-3.46613 15.867694,-5.12948 3.454421,-1.06538 7.875379,-2.05016 8.363281,-1.86293 0.596939,0.22907 2.925607,4.46459 2.925607,5.32127 0,1.51526 -1.062951,2.10309 -4.938888,2.7313 -3.817461,0.61873 -5.336085,1.10449 -9.877778,3.15956 -1.455208,0.65847 -4.006698,1.59901 -5.669982,2.0901 -2.500425,0.73827 -3.280596,1.15191 -4.504986,2.38854 -0.865088,0.87374 -1.634786,2.06735 -1.851067,2.87055 -0.467191,1.73502 -1.585412,2.85752 -3.937522,3.95258 -2.078898,0.96787 -3.13079,1.05317 -4.6739421,0.37904 z m -15.4340272,-0.0965 c 0.2425347,-0.0979 0.6394097,-0.0979 0.8819444,0 0.2425347,0.0979 0.044097,0.17794 -0.4409722,0.17794 -0.4850695,0 -0.6835069,-0.0801 -0.4409722,-0.17794 z"
             id="path108" />
          <path
             style="fill:#1e130d;stroke-width:0.352778"
             d="m -79.674731,147.35826 c 0.119917,-0.19403 0.376778,-0.35278 0.570805,-0.35278 0.194028,0 0.254667,0.15875 0.134751,0.35278 -0.119916,0.19403 -0.376777,0.35278 -0.570805,0.35278 -0.194028,0 -0.254667,-0.15875 -0.134751,-0.35278 z m 23.242425,-7.21134 c -0.107333,-0.27971 -0.139866,-0.79564 -0.07229,-1.14653 0.167061,-0.86747 1.82264,-0.87052 1.989582,-0.004 0.242647,1.25998 -1.478862,2.29272 -1.917291,1.15019 z M 9.7129287,123.41087 c -1.6489961,-1.64899 -1.7227726,-2.51366 -0.4449445,-5.21477 0.5085645,-1.07501 1.0303898,-2.85128 1.1596198,-3.94726 0.129226,-1.09598 0.357497,-2.19097 0.507269,-2.43331 0.178922,-0.2895 1.188089,-0.4406 2.942664,-0.4406 2.312286,0 3.101831,-0.18331 5.888207,-1.36705 1.769819,-0.75188 5.122855,-1.94458 7.451188,-2.65045 2.328334,-0.70587 5.423959,-1.67342 6.879167,-2.1501 2.772367,-0.90815 6.757109,-1.94474 7.906755,-2.05687 0.944111,-0.0921 3.178242,3.70268 2.879855,4.89154 -0.246619,0.98261 -2.126085,1.62399 -6.708453,2.28929 -1.958524,0.28436 -4.080694,0.96338 -7.055556,2.25755 -2.339999,1.01798 -5.63935,2.28986 -7.331889,2.8264 -2.565689,0.81334 -3.306957,1.22463 -4.458321,2.47371 -0.925107,1.00363 -1.460754,1.97041 -1.622661,2.92872 -0.278868,1.6506 -0.825056,2.23501 -3.01885,3.23011 -2.389089,1.08368 -3.380398,0.95675 -4.9740503,-0.63691 z"
             id="path106" />
        </g>
      </g>
    </g>
  </g>
</svg>
