<?xml version="1.0" encoding="utf-8"?>
<!-- Generator: Adobe Illustrator 16.0.3, SVG Export Plug-In . SVG Version: 6.00 Build 0)  -->
<!DOCTYPE svg PUBLIC "-//W3C//DTD SVG 1.1//EN" "http://www.w3.org/Graphics/SVG/1.1/DTD/svg11.dtd">
<svg version="1.1" xmlns="http://www.w3.org/2000/svg" xmlns:xlink="http://www.w3.org/1999/xlink" x="0px" y="0px" width="330px"
	 height="288px" viewBox="0 0 330 288" enable-background="new 0 0 330 288" xml:space="preserve">
<g id="Capa_2">
	<g>
		<g>
			<path fill="#B50202" d="M230.371,173.125l-18.015,10.405l-19.955-45.988l-27.302-0.337l-24.292,0.337l-19.471,45.988
				l-18.983-10.405l22.715-54.037l23.181-60.485c0,0-5.981-10.688-4.52-16.732c1.676-6.962,7.303-14.096,13.248-16.367
				c4.224-1.617,15.183-1.907,19.308-0.171c5.614,2.363,13.197,9.49,13.197,16.538c0,7.455-6.109,16.566-6.109,16.566l23.72,59.739
				L230.371,173.125z M166.343,74.77l-17.051,39.989l34.35,0.628L166.343,74.77z"/>
			<path fill="#B50202" d="M104.274,70h19.4c0,0-3.331-16.391-3.637-23.502C119.631,37.091,123.674,23,123.674,23h-19.4
				c0,0-3.632,11.568-3.632,23.498C100.642,56.054,104.274,70,104.274,70z"/>
			<path fill="#B50202" d="M65.577,92h19.91c0,0-8.267-28.47-8.582-42.5C76.487,30.932,85.487,7,85.487,7h-19.91
				C65.577,7,57,25.953,57,49.5C57,68.357,65.577,92,65.577,92z"/>
			<path fill="#B50202" d="M226.723,70h-19.396c0,0,3.327-16.391,3.638-23.502C211.36,37.091,207.326,23,207.326,23h19.396
				c0,0,3.638,11.568,3.638,23.498C230.36,56.054,226.723,70,226.723,70z"/>
			<path fill="#B50202" d="M265.42,92h-19.908c0,0,8.27-28.47,8.58-42.5c0.417-18.568-8.58-42.5-8.58-42.5h19.908
				c0,0,8.58,18.953,8.58,42.5C274,68.357,265.42,92,265.42,92z"/>
		</g>
	</g>
</g>
<g id="Capa_1">
	<g>
		<path fill="#FF0000" d="M92.359,208.161c6.976,0,12.959,1.919,17.95,5.757c4.991,3.838,7.486,8.433,7.486,13.781
			c0,5.438-2.514,10.057-7.54,13.861c-5.027,3.801-11.137,5.701-18.323,5.701c-7.149,0-13.242-1.908-18.296-5.729
			c-5.049-3.822-7.576-8.432-7.576-13.834c0-5.459,2.546-10.08,7.632-13.863C78.777,210.05,85,208.161,92.359,208.161z
			 M91.554,213.866c-4.992,0-9.246,1.326-12.759,3.981c-3.515,2.655-5.275,5.858-5.275,9.607c0,3.747,1.77,6.955,5.306,9.61
			c3.537,2.653,7.781,3.981,12.729,3.981c5.038,0,9.298-1.321,12.793-3.96c3.496-2.639,5.242-5.866,5.242-9.632
			c0-3.778-1.746-6.989-5.242-9.628C100.852,215.187,96.591,213.866,91.554,213.866z"/>
		<path fill="#FF0000" d="M103.331,227.709c0-4.824-5.174-8.734-11.549-8.734c-6.374,0-11.542,3.91-11.542,8.734
			c0,4.817,5.168,8.729,11.542,8.729C98.156,236.438,103.331,232.526,103.331,227.709z"/>
		<path d="M155.751,246.336h-13.495v-15.383c0-1.545-0.855-2.326-2.562-2.326c-1.684,0-2.524,0.781-2.524,2.326v15.383h-13.497
			v-15.162c0-3.559,1.553-6.545,4.66-8.975c3.101-2.429,6.901-3.643,11.396-3.643c5.147,0,9.274,1.41,12.378,4.228
			c2.428,2.202,3.645,5.269,3.645,9.199V246.336z"/>
		<path d="M200.952,227.644v9.823h-4.222v8.869h-14.646v-23.688c0-4.583,1.653-8.146,4.963-10.682
			c3.304-2.538,7.95-3.806,13.937-3.806c5.778,0,10.042,1.148,12.813,3.453c2.768,2.3,4.152,5.85,4.152,10.654v24.068h-14.651
			v-23.332c0-1.455-0.226-2.466-0.684-3.028c-0.461-0.564-1.272-0.847-2.459-0.847c-2.279,0-3.424,1.294-3.424,3.875v4.64H200.952z"
			/>
		<path d="M239.303,219.129v27.207h-13.489v-27.207H239.303z M232.593,206.985c1.824,0,3.41,0.488,4.739,1.46
			c1.334,0.974,2.01,2.124,2.01,3.453c0,1.417-0.631,2.584-1.896,3.491c-1.266,0.911-2.882,1.366-4.853,1.366
			c-1.974,0-3.586-0.455-4.85-1.366c-1.267-0.907-1.9-2.074-1.9-3.491c0-1.33,0.675-2.479,2.009-3.453
			C229.186,207.473,230.759,206.985,232.593,206.985z"/>
		<path d="M266.976,218.857v10.913c-0.942-0.399-1.792-0.599-2.561-0.599c-2.458,0-3.682,1.412-3.682,4.254v12.91h-13.501V231.47
			c0-3.937,1.428-7.069,4.265-9.407s6.624-3.506,11.362-3.506C263.92,218.557,265.289,218.656,266.976,218.857z"/>
	</g>
	<g>
		<rect x="50.5" y="191.5" fill="none" stroke="#B50202" stroke-width="11" stroke-miterlimit="10" width="232" height="73"/>
		<path fill="none" stroke="#000000" stroke-width="11" stroke-miterlimit="10" d="M301.5,258.026
			c0,5.255-9.023,20.474-18.153,20.474H54.707c-9.132,0-25.207-15.219-25.207-20.474v-63.481c0-5.258,16.074-16.045,25.207-16.045
			h228.64c9.13,0,18.153,10.788,18.153,16.045V258.026z"/>
	</g>
</g>
</svg>
