<?xml version="1.0" encoding="UTF-8" standalone="no"?>
<svg
   xmlns:dc="http://purl.org/dc/elements/1.1/"
   xmlns:cc="http://creativecommons.org/ns#"
   xmlns:rdf="http://www.w3.org/1999/02/22-rdf-syntax-ns#"
   xmlns:svg="http://www.w3.org/2000/svg"
   xmlns="http://www.w3.org/2000/svg"
   xmlns:sodipodi="http://sodipodi.sourceforge.net/DTD/sodipodi-0.dtd"
   xmlns:inkscape="http://www.inkscape.org/namespaces/inkscape"
   version="1.1"
   id="Capa_1"
   x="0px"
   y="0px"
   width="32px"
   height="32px"
   viewBox="0 0 32 32"
   enable-background="new 0 0 32 32"
   xml:space="preserve"
   sodipodi:docname="favicon.svg"
   inkscape:version="1.0.2 (1.0.2+r75+1)"><metadata
   id="metadata174"><rdf:RDF><cc:Work
       rdf:about=""><dc:format>image/svg+xml</dc:format><dc:type
         rdf:resource="http://purl.org/dc/dcmitype/StillImage" /></cc:Work></rdf:RDF></metadata><defs
   id="defs172" /><sodipodi:namedview
   pagecolor="#ffffff"
   bordercolor="#666666"
   borderopacity="1"
   objecttolerance="10"
   gridtolerance="10"
   guidetolerance="10"
   inkscape:pageopacity="0"
   inkscape:pageshadow="2"
   inkscape:window-width="1024"
   inkscape:window-height="576"
   id="namedview170"
   showgrid="false"
   inkscape:zoom="5.5400077"
   inkscape:cx="57.008755"
   inkscape:cy="15.13212"
   inkscape:window-x="0"
   inkscape:window-y="0"
   inkscape:window-maximized="1"
   inkscape:current-layer="Capa_1" />
<g
   id="Capa_2_1_"
   transform="matrix(0.0412893,0,0,0.0412893,11.059744,16.739416)">
	<g
   id="g70">
		<g
   id="Capa_1_2_">
			<g
   display="none"
   id="g32">
				<g
   display="inline"
   id="g8">
					<path
   stroke="#13007c"
   stroke-width="0.1306"
   stroke-miterlimit="10"
   d="m 14.545,41.021 c 0.42,0 0.819,0.068 1.04,0.011 -0.094,-1.438 -0.14,-2.626 -0.14,-3.57 l 0.005,-0.463 c -0.067,0.172 -0.218,0.547 -0.45,1.119 -0.422,1.042 -0.729,1.952 -0.927,2.729 l -0.343,1.198 c -0.256,0.958 -0.383,1.704 -0.383,2.229 0,0.156 0.029,0.31 0.089,0.455 -0.05,0.033 -0.158,0.111 -0.329,0.24 -0.078,0.055 -0.154,0.086 -0.225,0.086 -0.142,0 -0.213,-0.139 -0.213,-0.414 0,-0.565 0.176,-1.435 0.526,-2.601 l 0.094,-0.313 h -0.155 c -0.332,0 -0.589,0.104 -0.771,0.313 0.096,-0.692 0.351,-1.037 0.768,-1.037 l 0.376,0.019 0.083,-0.243 c 0.317,-0.968 0.803,-2.269 1.458,-3.898 0.219,-0.553 0.386,-0.896 0.494,-1.03 0.11,-0.136 0.321,-0.259 0.634,-0.367 -0.059,0.732 -0.088,1.423 -0.088,2.058 0,1.683 0.098,3.384 0.29,5.11 0.105,0.949 0.267,1.563 0.481,1.836 -0.19,0.38 -0.354,0.57 -0.49,0.57 -0.317,0 -0.565,-1.108 -0.74,-3.326 -0.332,0.074 -0.943,-0.021 -1.283,-0.021 z"
   id="path2" />
					<path
   stroke="#13007c"
   stroke-width="0.1306"
   stroke-miterlimit="10"
   d="m 18.243,40.945 -0.269,2.689 c -0.037,0.389 -0.06,0.641 -0.06,0.754 0,0.113 0.012,0.235 0.038,0.365 -0.206,0.209 -0.391,0.313 -0.557,0.313 -0.104,0 -0.153,-0.086 -0.153,-0.26 0,-0.089 0.021,-0.344 0.062,-0.766 l 0.313,-3.209 c -0.509,-0.234 -0.761,-0.576 -0.761,-1.031 0,-0.092 0.01,-0.214 0.029,-0.359 0.217,0.363 0.479,0.625 0.786,0.789 l 0.173,-1.418 0.62,-0.242 z m 0.691,-0.73 c 0.287,-0.141 0.563,-0.398 0.776,-0.74 0.365,-0.578 0.548,-1.324 0.548,-2.229 0,-0.5 -0.096,-0.9 -0.287,-1.204 -0.191,-0.306 -0.441,-0.459 -0.757,-0.459 -0.937,0 -1.688,0.803 -2.254,2.403 -0.048,-0.256 -0.071,-0.452 -0.071,-0.596 0,-0.617 0.271,-1.19 0.813,-1.726 0.54,-0.532 1.129,-0.798 1.758,-0.798 0.956,0 1.436,0.718 1.436,2.154 0,1.053 -0.248,1.967 -0.744,2.752 -0.355,0.563 -0.94,1.015 -1.385,1.174 z"
   id="path4" />
					<path
   stroke="#13007c"
   stroke-width="0.1306"
   stroke-miterlimit="10"
   d="m 22.419,41.094 -0.054,0.502 c -0.065,0.653 -0.1,1.117 -0.1,1.395 0,0.544 0.264,0.816 0.782,0.816 0.518,0 0.976,-0.188 1.37,-0.559 -0.093,0.613 -0.242,0.988 -0.453,1.133 -0.128,0.086 -0.349,0.176 -0.665,0.268 -0.313,0.094 -0.559,0.14 -0.728,0.14 -0.663,0 -0.993,-0.443 -0.993,-1.331 0,-0.239 0.087,-1.105 0.149,-1.784 z M 21.882,40.02 h -0.046 c -0.205,0 -0.402,0.088 -0.595,0.27 0.112,-0.439 0.202,-0.725 0.274,-0.848 0.07,-0.123 0.187,-0.184 0.344,-0.184 h 0.098 l 0.141,-1.183 0.67,-0.554 -0.174,1.734 h 0.629 c 0.438,0 0.787,-0.111 1.051,-0.339 -0.139,0.521 -0.264,0.834 -0.369,0.938 -0.106,0.107 -0.357,0.162 -0.756,0.162 h -0.627 -0.64 z m 0.374,-3.79 h -0.09 c -0.374,0 -0.721,0.242 -1.04,0.723 0.101,-0.652 0.239,-1.075 0.416,-1.264 0.14,-0.144 0.562,-0.213 1.271,-0.213 h 0.905 c 0.57,0 1.033,-0.117 1.39,-0.345 -0.156,0.511 -0.299,0.821 -0.424,0.933 -0.125,0.11 -0.396,0.166 -0.81,0.166 h -0.979 z"
   id="path6" />
				</g>
				<g
   display="inline"
   id="g30">
					<path
   stroke="#13007c"
   stroke-width="0.1306"
   stroke-miterlimit="10"
   d="m 10.579,38.852 c -0.086,0.357 -0.14,0.746 -0.163,1.164 0.004,-0.021 0.304,-1.24 0.569,-2.168 -0.169,0.247 -0.304,0.578 -0.406,1.004 z"
   id="path10" />
					<path
   stroke="#13007c"
   stroke-width="0.1306"
   stroke-miterlimit="10"
   d="m 10.703,35.451 c 0.035,-0.066 0.163,-0.166 0.249,-0.211 -0.207,0.072 -0.443,0.398 -0.443,0.398 0,0 -0.32,0.479 -0.49,0.995 -0.04,0.12 -0.067,0.242 -0.098,0.359 0.077,-0.257 0.162,-0.491 0.248,-0.704 0.215,-0.518 0.534,-0.837 0.534,-0.837 z"
   id="path12" />
					<path
   stroke="#13007c"
   stroke-width="0.1306"
   stroke-miterlimit="10"
   d="m 10.55,41.859 c 0.1,0.388 0.231,0.686 0.399,0.896 0.04,0.05 0.081,0.093 0.124,0.129 -0.36,-1.5 -0.653,-2.847 -0.658,-2.864 -0.008,0.146 -0.012,0.299 -0.012,0.451 0,0.543 0.049,1.006 0.147,1.388 z"
   id="path14" />
					<path
   stroke="#13007c"
   stroke-width="0.1306"
   stroke-miterlimit="10"
   d="M 9.641,38.131 C 9.656,38.047 9.673,37.963 9.691,37.881 9.62,37.518 9.525,37.089 9.406,36.6 9.286,36.106 9.182,35.649 9.093,35.229 c 0,0 -1.978,-2.547 -2.237,-2.557 0.55,2.139 1.946,7.188 1.946,7.188 -0.186,0.643 -1.697,6.877 -1.932,7.596 0.294,-0.012 1.714,-2.297 1.714,-2.297 0.136,-0.503 0.294,-1.065 0.474,-1.682 0.179,-0.615 0.308,-1.094 0.386,-1.432 0.022,0.107 0.046,0.221 0.071,0.333 -0.087,-0.576 -0.132,-1.215 -0.132,-1.923 0,-0.855 0.13,-1.639 0.258,-2.324 z"
   id="path16" />
					<path
   stroke="#13007c"
   stroke-width="0.1306"
   stroke-miterlimit="10"
   d="M 9.996,43.991 C 9.883,43.714 9.778,43.443 9.689,43.156 c 0.04,0.171 0.121,0.359 0.168,0.488 0.01,0.021 0.462,1.028 0.462,1.028 0,0 0.306,0.474 0.547,0.474 -0.121,-0.045 -0.239,-0.113 -0.351,-0.209 -0.13,-0.115 -0.285,-0.373 -0.519,-0.946 z"
   id="path18" />
					<path
   stroke="#13007c"
   stroke-width="0.1306"
   stroke-miterlimit="10"
   d="m 11.568,43.07 c -0.188,0 -0.353,-0.063 -0.495,-0.188 0.183,0.771 0.386,1.581 0.573,2.273 -0.32,0.065 -0.696,-0.013 -0.715,-0.013 -0.022,-0.002 -0.043,0 -0.065,0 0.16,0.059 0.359,0.078 0.534,0.078 0.317,0 0.441,-0.074 0.846,-0.228 0.01,-0.272 0.331,-2.045 0.352,-2.325 -0.237,0.156 -0.435,0.264 -0.593,0.318 -0.158,0.057 -0.304,0.085 -0.437,0.085 z"
   id="path20" />
					<path
   stroke="#13007c"
   stroke-width="0.1306"
   stroke-miterlimit="10"
   d="m 10.415,40.02 c 0,-0.002 0.001,-0.002 0.001,-0.004 z"
   id="path22" />
					<path
   stroke="#13007c"
   stroke-width="0.1306"
   stroke-miterlimit="10"
   d="m 9.921,36.995 c -0.086,0.276 -0.166,0.575 -0.231,0.886 0,0 0.001,0 0.001,0.002 0.06,-0.251 0.137,-0.546 0.23,-0.888 z"
   id="path24" />
					<path
   stroke="#13007c"
   stroke-width="0.1306"
   stroke-miterlimit="10"
   d="m 9.523,42.447 c 0.042,0.255 0.099,0.486 0.165,0.709 -0.062,-0.271 -0.12,-0.529 -0.174,-0.777 0.004,0.019 0.006,0.046 0.009,0.068 z"
   id="path26" />
					<path
   stroke="#13007c"
   stroke-width="0.1306"
   stroke-miterlimit="10"
   d="m 11.777,35.229 c -0.146,0.498 -0.36,1.207 -0.646,2.121 -0.046,0.148 -0.096,0.318 -0.146,0.498 0.025,-0.037 0.048,-0.078 0.076,-0.113 0.204,-0.256 0.433,-0.385 0.688,-0.385 0.117,0 0.244,0.025 0.381,0.074 0.137,0.047 0.315,0.135 0.536,0.268 l -0.352,-2.266 c -0.411,-0.183 -0.448,-0.271 -0.728,-0.271 -0.213,0 -0.432,-0.017 -0.635,0.085 0.043,0 0.094,-0.053 0.138,-0.053 0.164,0.001 0.402,-0.035 0.688,0.042 z"
   id="path28" />
				</g>
			</g>
			
				<text
   transform="matrix(0.907,0,0,1,5.7383,44.8828)"
   display="none"
   enable-background="new    "
   font-family="ArialMT"
   font-size="3.37px"
   id="text34">Web Developers</text>
		</g>
		<g
   id="Capa_2_2_"
   display="none">
			<g
   display="inline"
   id="g43">
				<path
   stroke="#13007c"
   stroke-width="0.1306"
   stroke-miterlimit="10"
   d="m 17.061,23.541 c 1.099,0 2.14,0.128 2.724,0.02 -0.245,-2.69 -0.366,-4.922 -0.366,-6.691 l 0.007,-0.863 c -0.173,0.322 -0.563,1.021 -1.175,2.094 -1.104,1.957 -1.91,3.661 -2.423,5.118 l -0.899,2.244 c -0.666,1.802 -1.001,3.198 -1.001,4.187 0,0.293 0.078,0.576 0.231,0.854 -0.127,0.063 -0.414,0.211 -0.857,0.45 -0.208,0.104 -0.403,0.159 -0.589,0.159 -0.371,0 -0.556,-0.258 -0.556,-0.771 0,-1.066 0.458,-2.691 1.375,-4.878 l 0.246,-0.587 H 13.37 c -0.869,0 -1.542,0.195 -2.019,0.587 0.249,-1.296 0.919,-1.942 2.01,-1.942 l 0.986,0.033 0.214,-0.459 c 0.832,-1.812 2.103,-4.244 3.813,-7.306 0.577,-1.036 1.009,-1.679 1.297,-1.932 0.284,-0.253 0.838,-0.484 1.657,-0.691 -0.153,1.38 -0.229,2.665 -0.229,3.853 0,3.15 0.252,6.348 0.754,9.584 0.275,1.778 0.694,2.928 1.264,3.439 -0.498,0.71 -0.924,1.068 -1.28,1.068 -0.835,0 -1.481,-2.077 -1.938,-6.234 -0.873,0.137 -2.471,-0.041 -3.359,-0.041 z"
   id="path37" />
				<path
   stroke="#13007c"
   stroke-width="0.1306"
   stroke-miterlimit="10"
   d="m 26.734,23.396 -0.701,5.041 c -0.102,0.729 -0.15,1.198 -0.15,1.414 0,0.215 0.033,0.442 0.104,0.688 -0.541,0.391 -1.022,0.587 -1.453,0.587 -0.271,0 -0.409,-0.162 -0.409,-0.481 0,-0.168 0.058,-0.646 0.155,-1.438 l 0.826,-6.018 c -1.322,-0.438 -1.985,-1.08 -1.985,-1.931 0,-0.177 0.026,-0.399 0.079,-0.677 0.563,0.682 1.249,1.173 2.054,1.479 l 0.454,-2.658 1.623,-0.451 z m 1.811,-1.369 c 0.749,-0.264 1.467,-0.747 2.031,-1.389 0.953,-1.087 1.432,-2.479 1.432,-4.181 0,-0.933 -0.249,-1.686 -0.749,-2.255 -0.499,-0.571 -1.161,-0.857 -1.983,-0.857 -2.448,0 -4.416,1.502 -5.896,4.501 -0.126,-0.474 -0.188,-0.845 -0.188,-1.113 0,-1.155 0.709,-2.233 2.125,-3.231 1.416,-1 2.949,-1.498 4.6,-1.498 2.502,0 3.754,1.348 3.754,4.043 0,1.968 -0.648,3.687 -1.949,5.154 -0.932,1.057 -2.459,1.897 -3.617,2.194 z"
   id="path39" />
				<path
   stroke="#13007c"
   stroke-width="0.1306"
   stroke-miterlimit="10"
   d="m 37.662,23.671 -0.141,0.943 c -0.17,1.228 -0.256,2.1 -0.256,2.612 0,1.02 0.685,1.526 2.049,1.526 1.355,0 2.552,-0.349 3.584,-1.045 -0.238,1.147 -0.631,1.858 -1.186,2.127 -0.333,0.162 -0.912,0.327 -1.738,0.501 -0.826,0.172 -1.461,0.259 -1.906,0.259 -1.732,0 -2.601,-0.831 -2.601,-2.493 0,-0.446 0.228,-2.078 0.396,-3.346 z m -1.404,-2.012 h -0.119 c -0.535,0 -1.055,0.169 -1.558,0.505 0.291,-0.828 0.53,-1.355 0.72,-1.585 0.188,-0.231 0.484,-0.349 0.895,-0.349 h 0.262 l 0.363,-2.215 1.755,-1.031 -0.453,3.248 h 1.646 c 1.146,0 2.063,-0.211 2.746,-0.633 -0.361,0.974 -0.682,1.561 -0.963,1.762 -0.279,0.197 -0.938,0.298 -1.977,0.298 H 37.93 Z m 0.976,-7.097 h -0.23 c -0.98,0 -1.888,0.453 -2.727,1.358 0.267,-1.227 0.629,-2.018 1.091,-2.37 0.36,-0.269 1.469,-0.402 3.327,-0.402 h 2.367 c 1.494,0 2.709,-0.215 3.642,-0.645 -0.42,0.958 -0.792,1.541 -1.115,1.749 -0.327,0.207 -1.03,0.31 -2.114,0.31 h -2.563 z"
   id="path41" />
			</g>
			<g
   display="inline"
   id="g65">
				<path
   stroke="#13007c"
   stroke-width="0.1306"
   stroke-miterlimit="10"
   d="m 6.68,19.473 c -0.226,0.672 -0.368,1.401 -0.427,2.183 0.014,-0.044 0.798,-2.32 1.488,-4.063 -0.437,0.462 -0.794,1.083 -1.061,1.88 z"
   id="path45" />
				<path
   stroke="#13007c"
   stroke-width="0.1306"
   stroke-miterlimit="10"
   d="m 7.006,13.099 c 0.09,-0.123 0.424,-0.309 0.652,-0.391 -0.539,0.133 -1.159,0.747 -1.159,0.747 0,0 -0.837,0.895 -1.281,1.864 -0.103,0.227 -0.177,0.459 -0.258,0.673 0.205,-0.477 0.424,-0.92 0.65,-1.315 0.56,-0.981 1.396,-1.578 1.396,-1.578 z"
   id="path47" />
				<path
   stroke="#13007c"
   stroke-width="0.1306"
   stroke-miterlimit="10"
   d="m 6.605,25.113 c 0.257,0.721 0.604,1.281 1.042,1.677 0.102,0.092 0.21,0.171 0.324,0.241 -0.94,-2.813 -1.708,-5.336 -1.72,-5.37 -0.02,0.276 -0.031,0.557 -0.031,0.847 0.001,1.012 0.128,1.881 0.385,2.605 z"
   id="path49" />
				<path
   stroke="#13007c"
   stroke-width="0.1306"
   stroke-miterlimit="10"
   d="M 4.224,18.125 C 4.266,17.965 4.309,17.809 4.356,17.654 4.172,16.969 3.924,16.172 3.61,15.251 3.297,14.328 3.025,13.473 2.793,12.682 c 0,0 -5.177,-4.771 -5.856,-4.789 1.441,4.008 5.09,13.475 5.09,13.475 -0.484,1.2 -4.439,12.885 -5.055,14.229 0.774,-0.021 4.486,-4.305 4.486,-4.305 0.358,-0.945 0.772,-1.995 1.24,-3.148 0.469,-1.156 0.805,-2.052 1.011,-2.688 0.06,0.206 0.123,0.414 0.188,0.627 -0.231,-1.079 -0.348,-2.274 -0.348,-3.603 0,-1.606 0.342,-3.072 0.675,-4.355 z"
   id="path51" />
				<path
   stroke="#13007c"
   stroke-width="0.1306"
   stroke-miterlimit="10"
   d="M 5.155,29.105 C 4.857,28.584 4.582,28.081 4.353,27.54 c 0.104,0.323 0.314,0.674 0.438,0.911 0.023,0.043 1.206,1.939 1.206,1.939 0,0 0.799,0.877 1.435,0.877 C 7.113,31.183 6.806,31.06 6.514,30.874 6.175,30.665 5.77,30.182 5.155,29.105 Z"
   id="path53" />
				<path
   stroke="#13007c"
   stroke-width="0.1306"
   stroke-miterlimit="10"
   d="m 9.267,27.38 c -0.493,0 -0.923,-0.114 -1.295,-0.349 0.481,1.443 1.008,2.963 1.502,4.263 -0.843,0.122 -1.825,-0.03 -1.872,-0.03 -0.058,0 -0.113,0.002 -0.171,0.004 0.421,0.11 0.94,0.149 1.396,0.149 0.831,0 1.156,-0.142 2.213,-0.425 0.031,-0.516 0.867,-3.833 0.926,-4.355 -0.623,0.293 -1.141,0.49 -1.554,0.592 C 10,27.33 9.618,27.38 9.267,27.38 Z"
   id="path55" />
				<path
   stroke="#13007c"
   stroke-width="0.1306"
   stroke-miterlimit="10"
   d="m 6.252,21.661 c 0.001,-0.002 0.001,-0.004 0.001,-0.009 0,0.003 -0.001,0.007 -0.001,0.007 z"
   id="path57" />
				<path
   stroke="#13007c"
   stroke-width="0.1306"
   stroke-miterlimit="10"
   d="m 4.958,15.992 c -0.224,0.521 -0.431,1.081 -0.603,1.662 0,0.001 0,0.003 10e-4,0.003 0.159,-0.469 0.359,-1.025 0.602,-1.665 z"
   id="path59" />
				<path
   stroke="#13007c"
   stroke-width="0.1306"
   stroke-miterlimit="10"
   d="m 3.92,26.211 c 0.107,0.48 0.256,0.914 0.432,1.329 -0.164,-0.505 -0.315,-0.989 -0.455,-1.457 0.008,0.041 0.014,0.086 0.023,0.128 z"
   id="path61" />
				<path
   stroke="#13007c"
   stroke-width="0.1306"
   stroke-miterlimit="10"
   d="m 9.815,12.682 c -0.38,0.936 -0.944,2.262 -1.691,3.979 -0.119,0.276 -0.25,0.594 -0.383,0.929 0.067,-0.07 0.129,-0.148 0.199,-0.21 0.534,-0.479 1.135,-0.719 1.802,-0.719 0.306,0 0.638,0.045 0.998,0.133 0.357,0.088 0.826,0.259 1.404,0.507 l -0.92,-4.248 c -1.078,-0.338 -1.174,-0.506 -1.905,-0.506 -0.558,0 -1.132,-0.033 -1.662,0.162 0.112,0 0.245,-0.099 0.361,-0.099 0.427,-10e-4 1.049,-0.066 1.797,0.072 z"
   id="path63" />
			</g>
			<text
   transform="matrix(1.0403,0,0,1,-3.2207,40.4443)"
   display="inline"
   font-family="ArialMT"
   font-size="7.0056px"
   id="text67">Web Developers</text>
		</g>
	</g>
</g>

<path
   id="path24-3"
   style="display:inline;fill:#01a1d7;fill-opacity:1;stroke:#000000;stroke-width:0.125022;stroke-miterlimit:4;stroke-dasharray:none;stroke-opacity:0"
   d="M 26.143852,6.9118583 C 21.543247,14.913151 16.901586,23.74369 13.178213,22.951944 9.021383,22.068026 16.99545,11.480058 13.590316,9.5145985 10.175864,7.5437618 6.0450613,15.42444 6.0450613,15.42444 5.9852448,7.762002 16.822873,4.3076594 17.325403,9.6835395 17.763406,13.388494 12.563535,21.295755 15.26906,20.270871 17.85155,19.292595 21.941419,12.354014 26.143852,6.9118583 Z"
   sodipodi:nodetypes="cssscsc" /><path
   id="path24-7"
   style="display:inline;fill:#ff0000;fill-opacity:1;stroke:#000000;stroke-width:0.111152;stroke-miterlimit:4;stroke-dasharray:none;stroke-opacity:0.00295835"
   d="m 23.337654,11.768326 c 4.477009,7.568705 -2.7724,13.765738 -7.887379,13.765738 -5.114977,0 -9.4446371,-4.17268 -9.4446371,-9.319941 0,-5.806782 8.0673451,-10.0693753 8.4645571,-4.693497 0.346211,3.704956 -4.5107932,10.411769 -1.230062,11.379132 3.20496,0.945022 7.770302,-6.822909 10.097521,-11.131432 z"
   sodipodi:nodetypes="csscsc" /><path
   id="path870"
   style="display:inline;fill:#01a1d7;fill-opacity:1;stroke:#000000;stroke-width:0.111152;stroke-miterlimit:4;stroke-dasharray:none;stroke-opacity:0"
   d="m 18.589092,10.922317 c -0.979771,0.0055 0.0867,-2.3529445 -1.396071,-3.6305959 -1.766274,-1.5219323 -3.517652,-0.3656176 -3.659167,-1.2422079 -0.163337,-1.0117893 2.862657,-1.0979399 4.469957,0.5910186 1.207686,1.2690417 1.517902,4.2765922 0.585281,4.2817852 z"
   sodipodi:nodetypes="sssss" /><path
   id="path870-6"
   style="display:inline;fill:#01a1d7;fill-opacity:1;stroke:#000000;stroke-width:0.153842;stroke-miterlimit:4;stroke-dasharray:none;stroke-opacity:0"
   d="M 20.287037,10.821074 C 19.143111,11.07896 20.148956,7.6103274 18.178744,5.9445891 15.831838,3.9603686 13.494382,5.3281736 13.473908,4.3155979 c -0.0246,-1.2169724 3.757683,-0.574707 5.462186,1.1003268 1.393725,1.3696288 2.43982,5.1596753 1.350943,5.4051493 z"
   sodipodi:nodetypes="sssss" /><g
   aria-label="Vanguardia"
   transform="matrix(0.19965286,0,0,0.22230273,-9.2456217,-7.7037799)"
   id="text915"
   style="font-size:10.5833px;line-height:1.25;font-family:sans-serif;letter-spacing:0px;white-space:pre;inline-size:99.1384;display:inline;fill:#000000;fill-opacity:1;stroke-width:0.264583"><path
     d="m 94.681674,158.82901 c 0.219119,1.92052 1.824603,3.24682 3.990408,3.25124 2.165798,0.004 3.599798,-1.37392 4.022728,-2.91263 l 0.11467,-5.29046 c 0,0 -3.103145,0.009 -3.127065,0.0951 l 0.0494,3.44512 c 0,0 -0.0471,1.88819 -0.936276,1.9685 -0.969301,-0.0518 -1.090144,-1.10903 -1.063096,-2.10024 l 0.06628,-3.3246 -3.145034,-0.0388 z"
     style="font-style:normal;font-variant:normal;font-weight:normal;font-stretch:normal;font-size:19.7556px;line-height:1.25;font-family:Dyuthi;-inkscape-font-specification:Dyuthi;letter-spacing:0px;white-space:pre;inline-size:99.1384;display:inline;fill:#000000;fill-opacity:1;stroke-width:0.264583"
     id="path921-7"
     sodipodi:nodetypes="czccccccccc" /><path
     d="m 50.051066,147.13715 4.456787,0.003 0.548095,6.517 c 0.313061,1.23067 1.419185,3.59677 1.419185,3.59677 0.04501,-0.23151 0.408116,-1.0357 1.134806,-3.6209 l 0.769539,-6.46794 4.352233,0.0148 c 0,0 -0.200789,4.22046 -0.459436,6.47806 -0.258648,2.2576 -3.533201,8.16962 -3.533201,8.16962 0,0 -4.534609,0.0647 -4.582789,0.0363 0,0 -3.338217,-6.24185 -3.602943,-8.09639 -0.264726,-1.85454 -0.502276,-6.63026 -0.502276,-6.63026 z"
     style="font-style:normal;font-variant:normal;font-weight:normal;font-stretch:normal;font-size:19.7556px;font-family:Dyuthi;-inkscape-font-specification:Dyuthi;fill:#000000;fill-opacity:1;stroke-width:0.264583"
     id="path917"
     sodipodi:nodetypes="ccccccczcczc" /><path
     d="m 70.191775,161.889 c 1.190635,0.0259 1.934829,0.0297 2.925862,-0.0303 l -0.0058,-4.65961 c 0.05215,-1.11135 -0.567852,-1.80228 -2.20053,-2.88134 -0.927547,-0.44565 -1.673219,-0.47877 -2.524675,-0.50816 -1.170417,0 -1.996671,0.15008 -2.891335,0.88639 -0.93606,0.77038 -1.40283,1.63433 -1.60328,2.86906 -0.197319,1.21544 0.320811,2.27017 1.143961,3.13834 0.82315,0.86817 2.288997,1.63715 4.498625,1.21692 l -0.0443,-2.30773 c -0.0082,-0.42527 -1.083441,-0.04 -1.823613,-0.39783 -0.625156,-0.30226 -0.934703,-0.74107 -0.872284,-1.52935 0.173633,-0.37299 0.526755,-0.89027 0.809713,-1.01888 0.585208,-0.28296 0.857336,-0.40571 1.448975,-0.18062 0.514469,0.19936 0.879088,0.43473 0.994843,0.79486 0.0901,1.32504 -0.06315,3.16024 0.143853,4.60824 z"
     style="font-style:normal;font-variant:normal;font-weight:normal;font-stretch:normal;font-size:19.7556px;font-family:Dyuthi;-inkscape-font-specification:Dyuthi;fill:#000000;fill-opacity:1;stroke-width:0.264583"
     id="path919"
     sodipodi:nodetypes="cccccssscsscccccc" /><path
     d="m 82.891756,156.97541 c -0.236375,-1.91887 -1.853718,-3.23349 -4.019494,-3.22221 -2.165776,0.0113 -3.587339,1.39996 -3.996432,2.94169 l -0.06712,5.29112 c 0,0 3.102962,-0.0315 3.126109,-0.11776 l -0.08033,-3.44465 c 0,0 0.03017,-1.88847 0.918552,-1.97522 0.969735,0.0448 1.100072,1.10109 1.081936,2.09247 l -0.03638,3.32497 3.14528,0.016 z"
     style="font-style:normal;font-variant:normal;font-weight:normal;font-stretch:normal;font-size:19.7556px;font-family:Dyuthi;-inkscape-font-specification:Dyuthi;fill:#000000;fill-opacity:1;stroke-width:0.264583"
     id="path921"
     sodipodi:nodetypes="czccccccccc" /><path
     d="m 87.347099,158.33466 c -0.171477,-0.47736 -0.178824,-1.06513 0.168377,-1.3684 0.3472,-0.30327 0.497757,-0.50901 1.142169,-0.46229 0.644412,0.0467 1.136675,0.30255 1.271723,0.68197 0,0 0.06434,0.91061 0.0887,1.36097 0.02436,0.45037 0.01498,1.92962 0.01498,1.92962 0.140174,1.42842 -0.620292,2.28578 -1.771413,2.28578 -0.765272,0 -2.122768,-0.0389 -2.122768,-0.0389 l 0.01005,2.22448 c 0.74598,0.007 1.211512,0.0474 1.758135,0.0536 0.09003,-0.0129 0.170418,-0.0193 0.241157,-0.0193 0.09646,0.007 0.180065,0.0131 0.250804,0.0193 1.163985,0.0129 2.355792,-0.26472 3.114633,-0.90138 0.848874,-0.69453 1.534615,-1.93604 1.553907,-3.28009 0.284833,-2.43089 -0.04677,-4.61076 -0.591872,-5.25172 -0.350813,-0.41251 -1.28947,-1.12664 -1.6107,-1.32114 -0.32123,-0.19449 -2.000222,-0.36837 -2.726909,-0.36837 -1.170417,0 -1.855893,0.3535 -2.627218,0.92234 -0.771325,0.56883 -1.4419,1.32243 -1.4419,2.55716 0,1.23472 0.106752,2.09336 0.703051,2.83898 0.354185,0.44288 1.149313,0.97633 2.039941,1.23565 0.971862,0.28297 2.051334,0.26296 2.642363,0.0316 -0.11908,-0.65254 -0.05431,-2.32798 -0.05431,-2.32798 -1.000325,0.17012 -1.88143,-0.32451 -2.052907,-0.80187 z"
     style="font-style:normal;font-variant:normal;font-weight:normal;font-stretch:normal;font-size:19.7556px;font-family:Dyuthi;-inkscape-font-specification:Dyuthi;fill:#000000;fill-opacity:1;stroke-width:0.264583"
     id="path923"
     sodipodi:nodetypes="zzzczcscccccccszszssscszz" /><path
     d="m 115.76896,154.84063 c -0.59291,0.54654 -0.93872,2.07996 -0.92937,2.45929 l 0.11314,4.58863 h 2.72987 l -0.0752,-4.36448 h 0.0193 v -0.0193 c 0,-0.0643 0.006,-0.13508 0.0193,-0.21222 0.0772,-0.34084 0.63712,-0.68737 1.48646,-0.7458 l -0.004,-2.75889 c -1.58642,0.0519 -2.76705,0.50622 -3.35996,1.05277 z"
     style="font-style:normal;font-variant:normal;font-weight:normal;font-stretch:normal;font-size:19.7556px;font-family:Dyuthi;-inkscape-font-specification:Dyuthi;fill:#000000;fill-opacity:1;stroke-width:0.264583"
     id="path929"
     sodipodi:nodetypes="zsccccscccz" /><path
     d="m 130.76887,161.88924 0.0595,-7.87827 h 2.88425 l -0.0595,7.87827 z m 2.34405,-8.57343 c -0.30225,0.29581 -0.65595,0.44372 -1.06109,0.44372 -0.41157,0 -0.76205,-0.14791 -1.05145,-0.44372 -0.28295,-0.28296 -0.42443,-0.63344 -0.42443,-1.05145 0,-0.40515 0.14148,-0.75241 0.42443,-1.0418 0.2894,-0.28939 0.63988,-0.43408 1.05145,-0.43408 0.39872,0 0.75241,0.14469 1.06109,0.43408 0.27653,0.27009 0.41801,0.61736 0.42444,1.0418 -0.007,0.41801 -0.14814,0.76849 -0.42444,1.05145 z"
     style="font-style:normal;font-variant:normal;font-weight:normal;font-stretch:normal;font-size:19.7556px;font-family:Dyuthi;-inkscape-font-specification:Dyuthi;fill:#000000;fill-opacity:1;stroke-width:0.264583"
     id="path933"
     sodipodi:nodetypes="ccccccscscsccc" /><path
     d="m 110.23367,161.93188 c 0.87714,0.0236 1.9261,0.006 2.92586,-0.045 l -0.006,-4.64491 c 0.0521,-1.11135 -0.56785,-1.80228 -2.20053,-2.88134 -0.92754,-0.44565 -1.67322,-0.47877 -2.52468,-0.50816 -1.17041,0 -1.99667,0.15008 -2.89133,0.88639 -0.93606,0.77038 -1.40283,1.63433 -1.60328,2.86906 -0.19732,1.21544 0.32081,2.27017 1.14396,3.13834 0.82315,0.86817 2.289,1.63715 4.49863,1.21692 l -0.0443,-2.30773 c -0.008,-0.42527 -1.08345,-0.04 -1.82362,-0.39783 -0.62515,-0.30226 -0.9347,-0.74107 -0.87228,-1.52935 0.17363,-0.37299 0.52675,-0.89027 0.80971,-1.01888 0.58521,-0.28296 0.85734,-0.40571 1.44898,-0.18062 0.51447,0.19936 0.87909,0.43473 0.99484,0.79486 0.0901,1.32504 -0.0631,3.16024 0.14386,4.60824 z"
     style="font-style:normal;font-variant:normal;font-weight:normal;font-stretch:normal;font-size:19.7556px;line-height:1.25;font-family:Dyuthi;-inkscape-font-specification:Dyuthi;letter-spacing:0px;white-space:pre;inline-size:99.1384;display:inline;fill:#000000;fill-opacity:1;stroke-width:0.264583"
     id="path919-6"
     sodipodi:nodetypes="cccccssscsscccccc" /><path
     d="m 141.09387,161.89746 2.92357,-0.0123 -0.004,-4.71609 c 0.0521,-1.11135 -0.56786,-1.80228 -2.20054,-2.88134 -0.92754,-0.44565 -1.67321,-0.47877 -2.52468,-0.50816 -1.17041,0 -1.99666,0.15008 -2.89133,0.88639 -0.93606,0.77038 -1.40283,1.63433 -1.60327,2.86906 -0.19733,1.21544 0.3208,2.27017 1.14395,3.13834 0.82315,0.86817 2.28901,1.63715 4.49864,1.21692 l -0.0443,-2.30773 c -0.008,-0.42527 -1.08345,-0.04 -1.82362,-0.39783 -0.62515,-0.30226 -0.9347,-0.74107 -0.87227,-1.52935 0.17363,-0.37299 0.52674,-0.89027 0.8097,-1.01888 0.58521,-0.28296 0.85734,-0.40571 1.44899,-0.18062 0.51446,0.19936 0.87908,0.43473 0.99483,0.79486 0.14784,1.58156 -0.019,3.30138 0.14404,4.64675 z"
     style="font-style:normal;font-variant:normal;font-weight:normal;font-stretch:normal;font-size:19.7556px;line-height:1.25;font-family:Dyuthi;-inkscape-font-specification:Dyuthi;letter-spacing:0px;white-space:pre;inline-size:99.1384;display:inline;fill:#000000;fill-opacity:1;stroke-width:0.264583"
     id="path919-6-4"
     sodipodi:nodetypes="cccccssscssccccc" /><path
     d="m 128.94699,151.03723 -0.0529,7.64732 c 0.0521,1.10233 -0.56786,1.78766 -2.20054,2.85797 -0.92754,0.44203 -1.67321,0.47488 -2.52468,0.50403 -1.17041,0 -1.99666,-0.14886 -2.89133,-0.8792 -0.93606,-0.76413 -1.40283,-1.62107 -1.60327,-2.84579 -0.19733,-1.20558 0.3208,-2.25175 1.14395,-3.11288 0.82315,-0.86113 2.28901,-1.62387 4.49864,-1.20705 l -0.0443,2.28901 c -0.008,0.42182 -1.08345,0.0397 -1.82362,0.39461 -0.62515,0.2998 -0.9347,0.73506 -0.87227,1.51694 0.17363,0.36997 0.52674,0.88305 0.8097,1.01062 0.58521,0.28066 0.85734,0.40242 1.44899,0.17915 0.51446,-0.19774 0.87908,-0.4312 0.99483,-0.78841 0.0901,-1.31429 -0.0193,-6.07431 -0.0579,-7.56392 z"
     style="font-style:normal;font-variant:normal;font-weight:normal;font-stretch:normal;font-size:19.7556px;line-height:1.25;font-family:Dyuthi;-inkscape-font-specification:Dyuthi;letter-spacing:0px;white-space:pre;inline-size:99.1384;display:inline;fill:#000000;fill-opacity:1;stroke-width:0.263508"
     id="path919-6-4-3"
     sodipodi:nodetypes="ccccssscsscccccc" /><path
     d="m 156.763,164.47639 5.9067,-10.92999 c 0,0 0.46984,-3.83675 -1.48203,-7.05781 -1.27532,-1.5225 -2.41114,-2.43591 -3.9594,-3.13619 -2.16838,-0.88835 -4.16749,-1.33537 -6.55712,-0.66207 -2.50019,0.70451 -4.33035,1.74585 -5.92938,3.8615 -1.57409,2.08259 -1.76929,4.98624 -1.1075,7.20555 0.66181,2.2193 2.74292,5.24128 7.25454,6.14656 l 2.67171,-4.76917 c 0.43451,-0.77563 -2.23754,-0.7048 -3.25302,-1.92376 -0.85768,-1.02966 -0.99488,-2.26163 -0.0954,-3.66203 0.69264,-0.55322 1.86109,-1.23532 2.51319,-1.25679 1.36554,-0.0756 1.99176,-0.0945 2.86408,0.76808 0.75491,0.75661 1.1964,1.46565 1.05269,2.21497 -1.15056,2.50205 -5.53562,10.5128 -7.10035,13.24179 z"
     style="font-style:normal;font-variant:normal;font-weight:normal;font-stretch:normal;font-size:19.7556px;line-height:1.25;font-family:Dyuthi;-inkscape-font-specification:Dyuthi;letter-spacing:0px;white-space:pre;inline-size:99.1384;display:inline;fill:#000000;fill-opacity:1;stroke-width:0.539478"
     id="path919-6-4-3-6"
     sodipodi:nodetypes="ccccssscsscccccc" /><g
     aria-label="87"
     transform="scale(0.97036327,1.0305419)"
     id="text1051"
     style="font-size:28.2632px;line-height:1.25;font-family:sans-serif;letter-spacing:0px;fill:#000000;fill-opacity:1;stroke-width:0.18695"><path
       d="m 176.06772,149.98903 c -0.99363,0 -1.75725,0.27141 -2.29086,0.81423 -0.53362,0.54281 -0.59449,1.04255 -0.64469,1.67509 -0.0562,0.70812 0.346,1.26698 0.76084,1.64023 0.53361,0.53361 1.20748,0.84968 2.20111,0.84968 0.98442,0 1.60686,-0.2542 2.13128,-0.78781 0.52442,-0.54282 0.75226,-1.04923 0.75163,-1.83387 -5.8e-4,-0.72939 -0.12163,-1.00971 -0.64604,-1.54332 -0.52442,-0.54282 -1.27884,-0.81423 -2.26327,-0.81423 z m -6.08089,-3.01728 c -0.63482,-0.78202 -1.18171,-1.92246 -1.18171,-3.09089 0,-1.73885 0.69659,-3.08867 1.99383,-3.9995 1.29723,-0.91083 2.67074,-1.6689 5.18241,-1.6689 2.49327,0 3.96952,0.55537 5.26675,1.4662 1.29724,0.90163 2.24333,2.40556 2.24333,4.15361 0,1.16843 -0.59716,2.42568 -1.24118,3.2077 0,0 0.62863,0.40514 1.62467,1.64593 0.71762,0.86482 1.06055,2.3025 1.06055,3.62734 0,2.04246 -1.47535,4.56085 -2.83699,5.60968 -1.35244,1.03963 -3.3627,1.63926 -6.03077,1.63926 -2.67727,0 -4.70133,-0.59963 -6.07217,-1.63926 -1.36164,-1.04883 -2.69181,-3.04132 -2.69181,-5.08378 0,-1.32484 0.3153,-2.81309 0.93133,-3.82801 0.67239,-0.96556 1.75176,-2.03938 1.75176,-2.03938 z m 4.08144,-3.0116 c 10e-4,0.48289 0.36263,1.02784 0.6124,1.24211 0.24976,0.21427 0.96468,0.45797 1.4113,0.46406 0.44663,0.006 1.04182,-0.14933 1.40965,-0.46406 0.36784,-0.31473 0.54984,-0.8959 0.57665,-1.29308 0.0268,-0.39718 -0.26027,-1.01485 -0.57665,-1.30413 -0.31637,-0.28929 -0.95281,-0.43914 -1.38795,-0.41587 -0.43513,0.0233 -0.97299,-0.0257 -1.433,0.41587 -0.45081,0.44161 -0.61368,0.87221 -0.6124,1.3551 z"
       style="font-style:normal;font-variant:normal;font-weight:bold;font-stretch:normal;font-family:sans-serif;-inkscape-font-specification:'sans-serif Bold';fill:#000000;fill-opacity:1;stroke-width:0.18695"
       id="path1053"
       sodipodi:nodetypes="ssscscscscssscsccscscscczzzzzzzcz" /><path
       d="m 187.94667,138.88612 16.59956,-0.0255 -8.2584,20.82982 -6.77793,-0.17484 5.75537,-15.10309 -7.49482,-0.004 z"
       style="font-style:normal;font-variant:normal;font-weight:bold;font-stretch:normal;font-family:sans-serif;-inkscape-font-specification:'sans-serif Bold';fill:#000000;fill-opacity:1;stroke-width:0.18695"
       id="path1055"
       sodipodi:nodetypes="ccccccc" /></g><ellipse
     style="fill:#000000;fill-opacity:1;stroke:#000000;stroke-width:0.751999;stroke-miterlimit:4;stroke-dasharray:none;stroke-opacity:0"
     id="path1058"
     cx="180.68117"
     cy="162.57994"
     rx="2.2073989"
     ry="1.9986638" /><g
     aria-label="fm"
     transform="scale(1.0551996,0.947688)"
     id="text1062"
     style="font-size:11.1675px;line-height:1.25;font-family:sans-serif;letter-spacing:0px;fill:#000000;fill-opacity:1;stroke-width:0.0738685"><path
       d="m 185.22302,168.66724 c 0,0 0.47035,0.0419 0.78355,0.39174 0.31319,0.34988 0.38378,1.55491 0.38378,1.55491 l -0.95729,0.009 c 0,0 -0.0395,-0.53364 -0.2263,-0.7622 -0.18684,-0.22856 -0.50188,-0.17075 -0.66169,-0.14662 -0.15981,0.0241 -0.40465,0.23625 -0.40364,0.44039 l 0.005,1.01555 h 1.4333 v 0.9393 h -1.4333 v 1.27607 h -1.26591 v -1.38096 -0.7445 -1.35858 c 0,-0.35481 0.18881,-0.64652 0.38654,-0.81519 0.19776,-0.17061 0.50413,-0.4004 0.919,-0.40576 z"
       style="font-style:normal;font-variant:normal;font-weight:bold;font-stretch:normal;font-size:5.95602px;font-family:sans-serif;-inkscape-font-specification:'sans-serif Bold';fill:#000000;fill-opacity:1;stroke-width:0.0738685"
       id="path1064"
       sodipodi:nodetypes="czcczzsccccccssscsc" /><path
       d="m 189.56441,170.37641 c 0,0 0.78028,-0.3204 1.25081,-0.37906 0.37419,0 0.84094,0.24632 1.03676,0.47704 0.19582,0.23072 0.30233,0.56622 0.29373,1.00624 v 1.98341 h -1.14524 v -1.6984 c 0.002,-0.0252 0.003,-0.0514 0.003,-0.0785 0.002,-0.0271 0.003,-0.0659 0.003,-0.11633 0,-0.23072 -0.0339,-0.39746 -0.10179,-0.50021 -0.0679,-0.1047 -0.19647,-0.13188 -0.34769,-0.13188 -0.19776,0 -0.23359,0.0562 -0.34216,0.21912 -0.10664,0.16286 -0.16189,0.39843 -0.16577,0.7067 v 1.59952 h -1.04695 v -1.6984 c 0,-0.36062 -0.031,-0.59231 -0.0931,-0.69506 -0.0621,-0.1047 -0.26122,-0.15705 -0.42017,-0.15705 -0.1997,0 -0.2652,0.0824 -0.37377,0.2472 -0.10858,0.16286 -0.16286,0.39649 -0.16286,0.70088 v 1.60243 h -1.12222 l -0.0254,-2.02111 c 0,0 0.10086,-0.77227 0.49334,-1.04738 0.39248,-0.27511 0.62402,-0.41958 1.28134,-0.35245 0.66395,0.1122 0.98514,0.33329 0.98514,0.33329 z"
       style="font-style:normal;font-variant:normal;font-weight:bold;font-stretch:normal;font-size:5.95602px;font-family:sans-serif;-inkscape-font-specification:'sans-serif Bold';display:inline;fill:#000000;fill-opacity:1;stroke-width:0.0738685"
       id="path1066"
       sodipodi:nodetypes="ccssccccscsccccscscsccczcc" /></g></g></svg>
